<svg viewBox="0 0 40 880" xmlns="http://www.w3.org/2000/svg"><mask id="a" height="27" maskUnits="userSpaceOnUse" width="16.7" x="0" y="0"><path clip-rule="evenodd" d="M0 0h16.7v27H0z" fill="#fff" fill-rule="evenodd"/></mask><mask id="b" height="9.7" maskUnits="userSpaceOnUse" width="9.7" x="-4" y="-3.9"><path clip-rule="evenodd" d="M0 1c0 .5.4.9.8.9.5 0 .8-.4.8-.9S1.2.1.8.1 0 .5 0 1z" fill="#fff" fill-rule="evenodd"/></mask><mask id="c" height="15.6" maskUnits="userSpaceOnUse" width="15" x="-4" y="-3.9"><path clip-rule="evenodd" d="M.7 2.1v.2H0v1.3h.7v2.8H.1v1.3h3.2V6.4h-.8V3.6h2.1v2.8H4v1.3h3V6.4h-.6V2.3H2.5V2c0-.5.5-.5.8-.5h.4V.1h-.6C2.2.1.7.3.7 2.1z" fill="#fff" fill-rule="evenodd"/></mask><mask id="d" height="13.4" maskUnits="userSpaceOnUse" width="14.2" x="-4" y="-4"><path clip-rule="evenodd" d="M3.4 0v1.3h.5l-.6 2c-.2.3-.2.7-.2.7s0-.4-.1-.7l-.6-2h.5V0H0v1.3h.6l1.5 4.1h2.1l1.5-4.1h.6V0z" fill="#fff" fill-rule="evenodd"/></mask><mask id="e" height="13.7" maskUnits="userSpaceOnUse" width="13.2" x="-3.9" y="-3.9"><path clip-rule="evenodd" d="M.1 2.9c0 1.4 1 2.8 2.9 2.8 1.4 0 2.2-.7 2.2-.7l-.6-1.3s-.7.5-1.5.5c-.6 0-1.1-.3-1.2-1h3.3v-.5C5.2 1.2 4.3.1 2.8.1 1.1.1.1 1.3.1 2.9zm2.7-1.5c.4 0 .7.4.7.8H1.9c.1-.4.4-.8.9-.8z" fill="#fff" fill-rule="evenodd"/></mask><mask id="f" height="13.5" maskUnits="userSpaceOnUse" width="12.3" x="-4" y="-4"><path clip-rule="evenodd" d="M2.4 1.4V.8c0-.5-.3-.7-.7-.7H0v1.3h.5c.1 0 .2.1.2.2v2.6H0v1.3h3.2V4.2h-.7v-.8c0-1 .5-1.6 1.4-1.6h.4V0h-.2c-.8 0-1.5.6-1.7 1.4z" fill="#fff" fill-rule="evenodd"/></mask><mask id="g" height="13.5" maskUnits="userSpaceOnUse" width="12.3" x="-4" y="-4"><path clip-rule="evenodd" d="M2.4 1.4V.8c0-.5-.3-.7-.7-.7H0v1.3h.5c.1 0 .2.1.2.2v2.6H0v1.3h3.2V4.2h-.7v-.8c0-1 .5-1.6 1.4-1.6h.4V0h-.2c-.8 0-1.4.6-1.7 1.4z" fill="#fff" fill-rule="evenodd"/></mask><g transform="translate(0 320)"><circle cx="20" cy="20" fill="#d7f7e9" r="20"/><path d="M19.7 11c1.6 0 3 .4 4.4 1.2 1.3.8 2.4 1.8 3.2 3.2s1.2 2.8 1.2 4.4-.4 3-1.2 4.4c-.8 1.3-1.8 2.4-3.2 3.2s-2.8 1.2-4.4 1.2-3-.4-4.4-1.2c-1.3-.8-2.4-1.8-3.2-3.2S11 21.3 11 19.7s.4-3 1.2-4.4 1.8-2.4 3.2-3.2 2.7-1.1 4.3-1.1zm0 15.7c1.3 0 2.4-.3 3.5-.9s1.9-1.5 2.6-2.6.9-2.2.9-3.5-.3-2.4-.9-3.5-1.5-1.9-2.6-2.6-2.2-.9-3.5-.9-2.4.3-3.5.9-1.9 1.5-2.6 2.6c-.6 1.1-.9 2.2-.9 3.5s.3 2.4.9 3.5 1.5 1.9 2.6 2.6 2.3.9 3.5.9zm-.8-5.8c-.1-.1-.2-.2-.2-.4v-5.8c0-.1 0-.2.1-.3s.2-.1.3-.1h1.1c.1 0 .2 0 .3.1s.1.2.1.3v5l2.4 1.7c.1.1.1.2.2.3s0 .2-.1.3l-.6 1c-.1.1-.2.2-.3.2s-.2 0-.3-.1l-3-2.2z" fill="#1dbf73"/></g><g transform="translate(0 160)"><circle cx="20" cy="20" fill="#d7f7e9" r="20"/><path d="M27.6 12c.1 0 .2 0 .3.1s.1.2.1.3v6c0 .1 0 .2-.1.3s-.2.1-.3.1h-6c-.1 0-.2 0-.3-.1s-.1-.2-.1-.3v-.9c0-.1 0-.2.1-.3s.2-.1.3-.1l4 .1c-.5-1.1-1.2-2-2.2-2.6-1-.7-2.1-1-3.3-1-1 0-1.9.2-2.7.6s-1.6 1-2.1 1.7-1 1.6-1.2 2.5c0 .1 0 .2-.1.2s-.2.1-.2.1h-.9c-.1 0-.2 0-.3-.1s-.1-.2-.1-.3c.2-1.2.7-2.3 1.4-3.2.7-1 1.6-1.7 2.7-2.3s2.2-.8 3.5-.8 2.6.3 3.7.9 2.1 1.5 2.8 2.5l-.1-3.1c0-.1 0-.2.1-.3s.2-.1.3-.1c-.2.1.7.1.7.1zm-.4 8.7c.1 0 .2 0 .3.1s.1.2.1.3c-.2 1.2-.7 2.3-1.4 3.2s-1.6 1.7-2.7 2.3-2.2.8-3.5.8-2.6-.3-3.7-.9-2.1-1.5-2.8-2.5l.1 3.1c0 .1 0 .2-.1.3s-.2.1-.3.1h-.9c-.1 0-.2 0-.3-.1s0-.2 0-.3v-6c0-.1 0-.2.1-.3s.2-.1.3-.1h6c.1 0 .2 0 .3.1s.1.2.1.3v.9c0 .1 0 .2-.1.3s-.2.1-.3.1l-4-.1c.5 1.1 1.2 2 2.2 2.6s2.1 1 3.3 1c1 0 1.9-.2 2.7-.6s1.6-1 2.1-1.7c.6-.7 1-1.6 1.2-2.5 0-.1 0-.2.1-.2s.2-.1.2-.1c.1-.1 1-.1 1-.1z" fill="#1dbf73"/></g><g transform="translate(0 40)"><circle cx="20" cy="20" fill="#ddf0f6" r="20"/><path d="M28.3 13.6c.5.5.7 1 .7 1.7s-.2 1.2-.7 1.7L17.2 28.1 12 29c-.3 0-.5 0-.7-.2s-.3-.5-.3-.8l.9-5.2L23 11.7c.5-.5 1-.7 1.7-.7s1.2.2 1.7.7zM18 22c-.1-.2-.2-.4-.2-.6s.1-.4.2-.6l4.2-4.2-1-1-6 5.9h1.4v1.7h1.7v1.4l5.9-6-1-1-4 4.4c-.2.1-.4.2-.6.2s-.4-.1-.6-.2zm-4.1 5.1l2.6-.4.6-.6v-1.5h-1.7v-1.7H14l-.6.6-.4 2.6c-.1 0 .9 1 .9 1zm13.3-11.2c.2-.2.2-.4.2-.6s-.1-.4-.3-.6l-1.9-1.9c-.2-.2-.4-.2-.6-.2s-.4.1-.6.2l-1.7 1.7 3.1 3.1z" fill="#6296d4"/></g><g transform="translate(0 80)"><circle cx="20" cy="20" fill="#d7f7e9" r="20"/><path d="M22.8 11.1c1.5 1.5 2.2 3.8 2 6.8L28 21c.2.2.3.4.4.7s.1.5 0 .8L27 26.7c-.1.3-.3.6-.6.7-.3.2-.6.2-.9.2s-.6-.2-.8-.4l-1.6-1.6-.6 1.5c-.1.2-.3.3-.5.3h-3.6c-.2 0-.4-.1-.5-.3l-.6-1.5-1.6 1.6c-.2.2-.5.4-.8.4s-.6 0-.9-.2-.5-.4-.6-.7L12 22.5c-.1-.2-.1-.5 0-.8s.2-.5.4-.7l3.2-3.2c-.2-3 .5-5.2 2-6.8.5-.5.9-.8 1.2-1.1s.7-.5 1.3-.9c.2-.1.4-.1.6 0 .6.4 1.1.7 1.3.9s.3.7.8 1.2zm-8.2 14.5l1.9-1.9c-.4-1.4-.8-2.6-1-3.8L13.4 22zm4.4.1h2c1.2-2.8 1.8-5.3 2-7.6.2-2.7-.3-4.7-1.5-5.9l-.7-.7c-.2-.2-.5-.4-.8-.6-.3.2-.6.4-.8.6-.2.1-.4.4-.7.7-1.2 1.2-1.7 3.2-1.5 5.9.1 2.4.8 4.9 2 7.6zm7.6-3.6L24.5 20c-.2 1.2-.5 2.5-1 3.8l1.9 1.9c0-.1 1.2-3.6 1.2-3.6zm-7.8-7.9c.3-.3.7-.5 1.2-.5s.9.2 1.2.5.5.7.5 1.2-.2.9-.5 1.2-.7.5-1.2.5-.9-.2-1.2-.5-.5-.7-.5-1.2.2-.8.5-1.2z" fill="#1dbf73" opacity=".902"/></g><circle cx="20" cy="20" fill="#eeecff" r="20"/><path d="M27 14.4c.3.3.5.7.5 1.2v11.7c0 .5-.2.9-.5 1.2s-.7.5-1.2.5H15.7c-.5 0-.9-.2-1.2-.5s-.5-.7-.5-1.2V12.7c0-.5.2-.9.5-1.2s.7-.5 1.2-.5h7.2c.5 0 .9.2 1.2.5l2.9 2.9zm-1.3 1.1L23 12.8v2.7zm-10 11.8h10.1V17.2h-3.7c-.2 0-.4-.1-.6-.2s-.2-.4-.2-.6v-3.7h-5.6z" fill="#9188e0"/><g transform="translate(0 200)"><circle cx="20" cy="20" fill="#d7f7e9" r="20"/><path d="M29.5 19.2c.3.3.5.7.5 1.2s-.2.9-.5 1.2l-7.2 7.2c-.3.3-.7.5-1.2.5s-.9-.2-1.2-.5l-7.5-7.5c-.2-.3-.4-.7-.4-1.2v-7.2c0-.5.2-.9.5-1.2s.7-.5 1.2-.5h7.2c.5 0 .9.2 1.2.5l7.4 7.5zm-8.4 8.4l7.2-7.2-7.5-7.5h-7.2v7.2c.1 0 7.5 7.5 7.5 7.5zm-2.4-11.3c0 .5-.2.9-.5 1.2s-.7.5-1.2.5-.9-.2-1.2-.5-.5-.7-.5-1.2.2-.9.5-1.2.7-.5 1.2-.5.9.2 1.2.5c.4.3.5.7.5 1.2z" fill="#1dbf73"/></g><g transform="translate(0 240)"><circle cx="20" cy="20" fill="#ffe5e5" r="20"/><path d="M29.5 19.2c.3.3.5.7.5 1.2s-.2.9-.5 1.2l-7.2 7.2c-.3.3-.7.5-1.2.5s-.9-.2-1.2-.5l-7.5-7.5c-.2-.3-.4-.7-.4-1.2v-7.2c0-.5.2-.9.5-1.2s.7-.5 1.2-.5h7.2c.5 0 .9.2 1.2.5l7.4 7.5zm-8.4 8.4l7.2-7.2-7.5-7.5h-7.2v7.2c.1 0 7.5 7.5 7.5 7.5zm-2.4-11.3c0 .5-.2.9-.5 1.2s-.7.5-1.2.5-.9-.2-1.2-.5-.5-.7-.5-1.2.2-.9.5-1.2.7-.5 1.2-.5.9.2 1.2.5c.4.3.5.7.5 1.2z" fill="#ff4d4d"/></g><g fill="#ff7537" transform="translate(0 440)"><circle cx="20" cy="20" opacity=".15" r="20"/><path d="M19.7 30.3c-1.9 0-3.7-.5-5.3-1.4s-2.9-2.3-3.9-3.9-1.4-3.4-1.4-5.3.5-3.7 1.4-5.3 2.3-2.9 3.9-3.9S17.7 9 19.7 9s3.7.5 5.3 1.4 2.9 2.3 3.9 3.9 1.4 3.4 1.4 5.3-.5 3.7-1.4 5.3-2.3 2.9-3.9 3.9-3.4 1.5-5.3 1.5zM15.2 27c1.3.8 2.8 1.2 4.4 1.2s3.1-.4 4.4-1.2l-2.3-2.3c-.7.3-1.4.4-2.1.4s-1.5-.1-2.1-.4L15.2 27zm7.9-7.3c0-.9-.3-1.8-1-2.4s-1.5-1-2.4-1-1.8.3-2.4 1-1 1.5-1 2.4.3 1.8 1 2.4 1.5 1 2.4 1 1.8-.3 2.4-1 1-1.5 1-2.4zm3.9 4.4c.8-1.3 1.2-2.8 1.2-4.4s-.4-3.1-1.2-4.4l-2.3 2.3c.3.7.4 1.4.4 2.1s-.1 1.5-.4 2.1zm-2.9-11.8c-1.3-.8-2.8-1.2-4.4-1.2s-3.1.4-4.4 1.2l2.3 2.3c.7-.3 1.4-.4 2.1-.4s1.5.1 2.1.4zm-11.8 2.9c-.8 1.3-1.2 2.8-1.2 4.4s.4 3.1 1.2 4.4l2.3-2.3c-.3-.7-.4-1.4-.4-2.1s.1-1.5.4-2.1l-2.3-2.3z"/></g><g transform="translate(0 360)"><circle cx="20" cy="20" fill="#eff1f6" r="20"/><path d="M19.7 30.3c-1.9 0-3.7-.5-5.3-1.4s-2.9-2.3-3.9-3.9-1.4-3.4-1.4-5.3.5-3.7 1.4-5.3 2.3-2.9 3.9-3.9S17.7 9 19.7 9s3.7.5 5.3 1.4 2.9 2.3 3.9 3.9 1.4 3.4 1.4 5.3-.5 3.7-1.4 5.3-2.3 2.9-3.9 3.9-3.4 1.5-5.3 1.5zM15.2 27c1.3.8 2.8 1.2 4.4 1.2s3.1-.4 4.4-1.2l-2.3-2.3c-.7.3-1.4.4-2.1.4s-1.5-.1-2.1-.4L15.2 27zm7.9-7.3c0-.9-.3-1.8-1-2.4s-1.5-1-2.4-1-1.8.3-2.4 1-1 1.5-1 2.4.3 1.8 1 2.4 1.5 1 2.4 1 1.8-.3 2.4-1 1-1.5 1-2.4zm3.9 4.4c.8-1.3 1.2-2.8 1.2-4.4s-.4-3.1-1.2-4.4l-2.3 2.3c.3.7.4 1.4.4 2.1s-.1 1.5-.4 2.1zm-2.9-11.8c-1.3-.8-2.8-1.2-4.4-1.2s-3.1.4-4.4 1.2l2.3 2.3c.7-.3 1.4-.4 2.1-.4s1.5.1 2.1.4zm-11.8 2.9c-.8 1.3-1.2 2.8-1.2 4.4s.4 3.1 1.2 4.4l2.3-2.3c-.3-.7-.4-1.4-.4-2.1s.1-1.5.4-2.1l-2.3-2.3z" fill="#79899e"/></g><circle cx="20" cy="540" fill="#f8f9fb" r="19.5" stroke="#e0e2e7"/><g transform="translate(9 529)"><circle cx="11" cy="11" fill="none" r="7.5" stroke="#fff" stroke-width="5"/><path d="M11 22c-2 0-3.8-.5-5.5-1.5s-3-2.3-4-4S0 13 0 11s.5-3.8 1.5-5.5 2.3-3 4-4S9 0 11 0s3.8.5 5.5 1.5 3 2.3 4 4S22 9 22 11s-.5 3.8-1.5 5.5-2.3 3-4 4S13 22 11 22zm-4.6-3.4c1.4.9 2.9 1.3 4.6 1.3s3.2-.4 4.6-1.3l-2.4-2.4c-.7.3-1.4.4-2.2.4s-1.5-.1-2.2-.4zm8.1-7.6c0-1-.3-1.8-1-2.5s-1.5-1-2.5-1-1.8.3-2.5 1-1 1.5-1 2.5.3 1.8 1 2.5 1.5 1 2.5 1 1.8-.3 2.5-1 1-1.5 1-2.5zm4.1 4.6c.9-1.4 1.3-2.9 1.3-4.6s-.4-3.2-1.3-4.6l-2.4 2.4c.3.7.4 1.4.4 2.2s-.1 1.5-.4 2.2zm-3-12.2c-1.4-.9-2.9-1.3-4.6-1.3s-3.2.5-4.6 1.3l2.4 2.4c.7-.3 1.4-.4 2.2-.4s1.5.1 2.2.4l2.4-2.4zm-12.2 3C2.6 7.8 2.1 9.3 2.1 11s.4 3.2 1.3 4.6l2.4-2.4c-.3-.7-.4-1.4-.4-2.2s.1-1.5.4-2.2z" fill="#79899e"/></g><g transform="translate(0 480)"><circle cx="20" cy="20" fill="#ffe5e5" r="20"/><path d="M19.7 30.3c-1.9 0-3.7-.5-5.3-1.4s-2.9-2.3-3.9-3.9-1.4-3.4-1.4-5.3.5-3.7 1.4-5.3 2.3-2.9 3.9-3.9S17.7 9 19.7 9s3.7.5 5.3 1.4 2.9 2.3 3.9 3.9 1.4 3.4 1.4 5.3-.5 3.7-1.4 5.3-2.3 2.9-3.9 3.9-3.4 1.5-5.3 1.5zM15.2 27c1.3.8 2.8 1.2 4.4 1.2s3.1-.4 4.4-1.2l-2.3-2.3c-.7.3-1.4.4-2.1.4s-1.5-.1-2.1-.4L15.2 27zm7.9-7.3c0-.9-.3-1.8-1-2.4s-1.5-1-2.4-1-1.8.3-2.4 1-1 1.5-1 2.4.3 1.8 1 2.4 1.5 1 2.4 1 1.8-.3 2.4-1 1-1.5 1-2.4zm3.9 4.4c.8-1.3 1.2-2.8 1.2-4.4s-.4-3.1-1.2-4.4l-2.3 2.3c.3.7.4 1.4.4 2.1s-.1 1.5-.4 2.1zm-2.9-11.8c-1.3-.8-2.8-1.2-4.4-1.2s-3.1.4-4.4 1.2l2.3 2.3c.7-.3 1.4-.4 2.1-.4s1.5.1 2.1.4zm-11.8 2.9c-.8 1.3-1.2 2.8-1.2 4.4s.4 3.1 1.2 4.4l2.3-2.3c-.3-.7-.4-1.4-.4-2.1s.1-1.5.4-2.1l-2.3-2.3z" fill="#ff4d4d"/></g><g transform="translate(0 400)"><circle cx="20" cy="20" fill="#d7f7e9" r="20"/><path d="M19.7 30.3c-1.9 0-3.7-.5-5.3-1.4s-2.9-2.3-3.9-3.9-1.4-3.4-1.4-5.3.5-3.7 1.4-5.3 2.3-2.9 3.9-3.9S17.7 9 19.7 9s3.7.5 5.3 1.4 2.9 2.3 3.9 3.9 1.4 3.4 1.4 5.3-.5 3.7-1.4 5.3-2.3 2.9-3.9 3.9-3.4 1.5-5.3 1.5zM15.2 27c1.3.8 2.8 1.2 4.4 1.2s3.1-.4 4.4-1.2l-2.3-2.3c-.7.3-1.4.4-2.1.4s-1.5-.1-2.1-.4L15.2 27zm7.9-7.3c0-.9-.3-1.8-1-2.4s-1.5-1-2.4-1-1.8.3-2.4 1-1 1.5-1 2.4.3 1.8 1 2.4 1.5 1 2.4 1 1.8-.3 2.4-1 1-1.5 1-2.4zm3.9 4.4c.8-1.3 1.2-2.8 1.2-4.4s-.4-3.1-1.2-4.4l-2.3 2.3c.3.7.4 1.4.4 2.1s-.1 1.5-.4 2.1zm-2.9-11.8c-1.3-.8-2.8-1.2-4.4-1.2s-3.1.4-4.4 1.2l2.3 2.3c.7-.3 1.4-.4 2.1-.4s1.5.1 2.1.4zm-11.8 2.9c-.8 1.3-1.2 2.8-1.2 4.4s.4 3.1 1.2 4.4l2.3-2.3c-.3-.7-.4-1.4-.4-2.1s.1-1.5.4-2.1l-2.3-2.3z" fill="#1dbf73"/></g><g transform="translate(0 560)"><circle cx="20" cy="20" fill="#f8f9fb" r="19.5" stroke="#e0e2e7"/><path d="M16.9 28.8l-3.2-5.4-.4-2.6 1.8-1.6.4-10.5 1.6-1.4 1.8.6.7 7.1 1.3.1.8.6 2.5.6 1.3 1.1 1.9 1.3.3 2.1-1 7.7z" fill="#fff"/><path d="M13.7 21.3H5.2l-2.8-4.7c-.2-.3-.5-.9-.4-1.5.1-.4.3-.7.7-1 .3-.1.6-.3.8-.3l.5-.3.3-11c.1-.4.5-.7.9-.7.5 0 .8.3.9.7l.6 7.6h.1c.3-.3.8-.5 1.3-.5.8 0 1.4.5 1.7 1.1.3-.2.6-.3 1-.3.9 0 1.6.6 1.8 1.4h.2c.8 0 1.5.5 1.7 1.3.1.3.2.6.3 1-.1.1.3 3.7-1.1 7.2m2.9-7.4c-.1-2-1.4-3.1-2.8-3.5-.8-1.5-2.2-1.5-3-1.5h-.2C10 8.3 9.3 8 8.5 8l-.4-5.6v-.1C7.8.9 6.7 0 5.3 0S2.7.9 2.5 2.3l-.3 10.1-.6.3C.7 13.2.2 14 0 14.9c-.3 1.4.5 2.5.7 2.8l2.2 3.6c-.1.2-.2.5-.2.8l.1 3.5c0 .9 1 1.5 1.8 1.5h9.9c.8 0 1.4-.6 1.4-1.5v-3.4c0-.3-.1-.5-.2-.7 1.3-3.8.9-7.5.9-7.6" fill="#79899e" mask="url(#a)" transform="translate(12.096 6.379)"/></g><g fill="#fff"><path d="M-4 5.8h9.7v-9.7H-4z" mask="url(#b)" transform="translate(11.152 695.96)"/><path d="M-4 11.7h15V-3.9H-4z" mask="url(#c)" transform="translate(6.544 696.052)"/><path d="M-4 9.4h14.2V-4H-4z" mask="url(#d)" transform="translate(13.364 698.356)"/><path d="M-3.9 9.7H9.3V-3.9H-3.9z" mask="url(#e)" transform="translate(19.447 698.171)"/><path d="M-4 9.5H8.3V-4H-4z" mask="url(#f)" transform="translate(29.77 698.264)"/><path d="M-4 9.5H8.3V-4H-4z" mask="url(#g)" transform="translate(25.07 698.264)"/></g><g transform="translate(0 600)"><circle cx="20" cy="20" fill="#eff1f6" r="20"/><path d="M28.6 16.3c.3 0 .5.2.7.4s.3.5.2.8-.1.5-.3.7l-3.7 3.6.9 5.1c0 .3 0 .5-.2.8s-.4.4-.7.5-.6 0-.8-.1l-4.6-2.4-4.6 2.4c-.3.1-.5.2-.8.1s-.5-.2-.7-.5c-.2-.2-.2-.5-.2-.8l.9-5.1-3.7-3.6c-.2-.2-.3-.5-.3-.7s.1-.5.2-.8c.2-.2.4-.4.7-.4l5.1-.7L19 11c.1-.3.3-.5.6-.6s.5-.1.8 0 .5.3.6.6l2.3 4.6c.1-.1 5.3.7 5.3.7zm-4.9 4.9l3.5-3.4-4.9-.7-2.2-4.4-2.2 4.4-4.9.7 3.5 3.4-.8 4.9 4.4-2.3 4.4 2.3z" fill="#79899e"/></g><g transform="translate(0 640)"><circle cx="20" cy="20" fill="#d7f7e9" r="20"/><path d="M24 22.6c0 1.8-1.4 3.3-3.5 3.6v1.6c0 .2-.1.3-.3.3h-1.3c-.2 0-.3-.1-.3-.3v-1.6c-2.3-.3-3.5-1.5-3.5-1.6-.1-.1-.1-.3 0-.4l1-1.2c0-.1.1-.1.2-.1s.2 0 .2.1c0 0 1.4 1.2 3.1 1.2.9 0 2-.5 2-1.5 0-.9-1.1-1.3-2.4-1.8-1.7-.6-3.9-1.4-3.9-3.7 0-1.6 1.4-3 3.4-3.4v-1.6c0-.2.1-.3.3-.3h1.3c.2 0 .3.1.3.3v1.6c2 .2 3 1.2 3 1.2.1.1.1.2 0 .3l-.8 1.3c0 .1-.1.1-.2.1s-.2 0-.3-.1c0 0-1.2-1-2.6-1-1.2 0-2.1.6-2.1 1.4 0 .9 1.2 1.4 2.5 1.9 1.9.8 3.9 1.5 3.9 3.7z" fill="#1dbf73"/></g><circle cx="20" cy="740" fill="#eff1f6" r="20"/><g fill="#79899e"><path d="M24.5 738.2c.8.2 1.5.7 2.1 1.3.7.8 1.1 1.8 1.1 3v3.1c0 .7-.3 1.3-.8 1.8s-1.1.8-1.8.8H14.6c-.7 0-1.3-.3-1.8-.8-.5-.4-.8-1-.8-1.7v-3.1c0-1.2.4-2.2 1.2-3 .6-.7 1.3-1.1 2.1-1.3l.4-.1c-.6-.8-.8-1.8-.8-2.8 0-.9.2-1.8.7-2.5s1.1-1.4 1.8-1.8c.8-.5 1.6-.7 2.5-.7s1.8.2 2.5.7 1.4 1.1 1.8 1.8c.5.8.7 1.6.7 2.5 0 1-.3 2-.8 2.8zm-4.6-6.3c-.9 0-1.7.3-2.4 1s-1 1.5-1 2.4.3 1.7 1 2.4 1.5 1 2.4 1 1.7-.3 2.4-1 1-1.5 1-2.4-.3-1.7-1-2.4c-.7-.6-1.5-1-2.4-1zm6.2 13.8v-3.1c0-.6-.2-1.2-.6-1.7s-.9-.8-1.5-1l-1.3-.4c-.9.6-1.8.9-2.9.9s-2-.3-2.9-.9l-1.3.4c-.6.2-1.1.5-1.5 1s-.6 1.1-.6 1.7v3.1c0 .2.1.4.3.6s.4.3.6.3H25c.2 0 .4-.1.6-.3s.5-.4.5-.6z"/><path d="M9.4 732.1c-.3-.3-.3-.8-.1-1.1.3-.3.8-.3 1.1-.1l21 19c.3.3.3.8.1 1.1-.3.3-.8.3-1.1.1z"/></g><g transform="translate(0 120)"><circle cx="20" cy="20" fill="#ffe9f7" r="20"/><path d="M28.9 16.8c0 .2.1.3.1.5v9.3c0 .5-.2.9-.5 1.2s-.7.5-1.2.5H12.7c-.5 0-.9-.2-1.2-.5-.3-.4-.5-.8-.5-1.2v-9.3c0-.2 0-.4.1-.5l1.8-5.3c.1-.4.3-.6.6-.8s.6-.3 1-.3h11c.4 0 .7.1 1 .3s.5.5.6.8c0-.1 1.8 5.3 1.8 5.3zm-1.7.2l-1.7-5.1h-4.7V17zm-12.7-5.1L12.8 17h6.4v-5.1zm-1.8 14.7h14.6v-7.9H12.7z" fill="#e774ba"/></g><g fill="#f0f0f0" transform="translate(0 280)"><circle cx="20" cy="20" r="20"/><path d="M24 22.6c0 1.8-1.4 3.3-3.5 3.6v1.6c0 .2-.1.3-.3.3h-1.3c-.2 0-.3-.1-.3-.3v-1.6c-2.3-.3-3.5-1.5-3.5-1.6-.1-.1-.1-.3 0-.4l1-1.2c0-.1.1-.1.2-.1s.2 0 .2.1c0 0 1.4 1.2 3.1 1.2.9 0 2-.5 2-1.5 0-.9-1.1-1.3-2.4-1.8-1.7-.6-3.9-1.4-3.9-3.7 0-1.6 1.4-3 3.4-3.4v-1.6c0-.2.1-.3.3-.3h1.3c.2 0 .3.1.3.3v1.6c2 .2 3 1.2 3 1.2.1.1.1.2 0 .3l-.8 1.3c0 .1-.1.1-.2.1s-.2 0-.3-.1c0 0-1.2-1-2.6-1-1.2 0-2.1.6-2.1 1.4 0 .9 1.2 1.4 2.5 1.9 1.9.8 3.9 1.5 3.9 3.7z"/></g><g transform="translate(0 760)"><circle cx="20" cy="20" fill="#eff1f6" r="20"/><path d="M27 14.4c.3.3.5.7.5 1.2v11.7c0 .5-.2.9-.5 1.2s-.7.5-1.2.5H15.7c-.5 0-.9-.2-1.2-.5s-.5-.7-.5-1.2V12.7c0-.5.2-.9.5-1.2s.7-.5 1.2-.5h7.2c.5 0 .9.2 1.2.5l2.9 2.9zm-1.3 1.1L23 12.8v2.7zm-10 11.8h10.1V17.2h-3.7c-.2 0-.4-.1-.6-.2s-.2-.4-.2-.6v-3.7h-5.6z" fill="#79899e"/></g><g transform="translate(0 800)"><circle clip-rule="evenodd" cx="20" cy="20" fill="#fff" fill-rule="evenodd" r="19.5" stroke="#e5e7ea"/><path d="M16.2 17l3.8-3.7 3.8 3.7 1.2-1.1-5-4.9-5 4.9zm7.6 6L20 26.7 16.2 23 15 24.1l5 4.9 5-4.9z" fill="#79899e"/></g><g transform="translate(0 840)"><circle cx="20" cy="20" fill="#f0f0f0" r="19.5" stroke="#eff1f6"/><path d="M16.2 17l3.8-3.7 3.8 3.7 1.2-1.1-5-4.9-5 4.9zm7.6 6L20 26.7 16.2 23 15 24.1l5 4.9 5-4.9z" fill="#79899e"/></g><circle cx="20" cy="700" fill="#fff" r="16.7"/><path d="M40 700c0-11-9-20-20-20s-20 9-20 20 9 20 20 20 20-9 20-20zm-11.2 10.6h-5.3V699h-5v11.6h-5.3V699h-3v-4.3h3v-1.3c0-3.4 2.6-5.7 6.4-5.7h3.9v4.3h-3c-1.2 0-2 .7-2 1.8v1h10.3z" fill="#1dbf73"/></svg>