<svg width="17" height="105" viewBox="0 0 17 105" xmlns="http://www.w3.org/2000/svg"><path d="M16.059 35.324v.06l-6.193-5.857a2.289 2.289 0 00-3.096.03L.729 35.446c-.03.03-.092.06-.122.091-.03.03-.06.091-.09.122l-.031.03c-.243.334-.395.728-.395 1.123v8.466c-.03 1.002.79 1.821 1.791 1.852h13.084c1.002-.03 1.822-.85 1.822-1.852v-8.436a1.763 1.763 0 00-.73-1.517zm-.273 9.984c0 .455-.365.82-.82.82H1.913a.816.816 0 01-.82-.82V36.84c0-.152.06-.334.152-.455l6.162-6.04a1.334 1.334 0 011.73 0l6.497 6.13.03-.03a.99.99 0 01.122.425v8.437z" fill="#777"/><path d="M14.42 37.387c-.182-.212-.516-.212-.729-.03L9.32 41.605a1.33 1.33 0 01-1.7.03l-4.493-4.308a.515.515 0 00-.698 0l-.03.03c-.183.212-.183.546.03.728l4.462 4.34c.425.364.971.576 1.518.576a2.26 2.26 0 001.548-.606l4.402-4.28c.212-.181.273-.485.06-.728.031.03.031 0 0 0z" fill="#777"/><path d="M16.059 6.494v.06L9.836.699a2.289 2.289 0 00-3.097.03L.73 6.616c-.03.03-.092.06-.122.09-.03.031-.06.092-.09.122l-.031.03A2.182 2.182 0 00.09 7.981v8.467c0 1.032.79 1.851 1.791 1.851h13.084c1.002-.03 1.822-.85 1.822-1.851V8.012a1.763 1.763 0 00-.73-1.518zm-.273 9.984c0 .456-.365.82-.82.82H1.913a.816.816 0 01-.82-.82V8.012c0-.152.06-.334.152-.456l6.162-6.039a1.334 1.334 0 011.73 0l6.497 6.13.03-.03a.982.982 0 01.122.425v8.436z" fill="#999"/><path d="M14.42 8.588c-.182-.212-.516-.212-.729-.03L9.32 12.806a1.33 1.33 0 01-1.7.03L3.127 8.528a.515.515 0 00-.698 0l-.03.03c-.183.213-.183.547.03.73l4.462 4.339c.425.364.971.576 1.518.576a2.26 2.26 0 001.548-.607l4.402-4.279a.493.493 0 00.06-.728c.031.03.031 0 0 0zm.576 55.262H1.912c-.485 0-.97.182-1.305.546-.334.364-.516.82-.516 1.305v8.436c-.03 1.002.79 1.821 1.791 1.851h13.084a1.826 1.826 0 001.822-1.82V65.73a1.833 1.833 0 00-1.792-1.881zm0 1.062h.061L9.35 70.496a1.33 1.33 0 01-1.7.03l-5.768-5.614h13.114zm.79 9.195c0 .455-.365.82-.82.82H1.913a.816.816 0 01-.82-.82V65.61l5.768 5.644c.425.364.971.577 1.518.577.576 0 1.153-.213 1.578-.607l5.768-5.645v8.528h.06z" fill="#999"/><path d="M14.996 92.68H1.912c-.485 0-.97.181-1.305.545-.334.334-.516.82-.516 1.305v8.437c-.03 1.001.79 1.82 1.791 1.85h13.084a1.826 1.826 0 001.822-1.82v-8.436a1.833 1.833 0 00-1.792-1.882zm0 1.061h.061L9.35 99.325a1.33 1.33 0 01-1.7.03l-5.768-5.614h13.114zm.79 9.195c0 .456-.365.82-.82.82H1.913a.816.816 0 01-.82-.82V94.44l5.768 5.645c.425.364.971.576 1.518.576.576 0 1.153-.212 1.578-.607l5.768-5.644v8.527h.06z" fill="#777"/></svg>