<svg width="24" height="24" fill="none" xmlns="http://www.w3.org/2000/svg"><path d="M6.225 21c-1.365 0-2.502-.533-3.412-1.599-.876-1.1-1.313-2.63-1.313-4.59 0-2.579.665-4.883 1.995-6.911C4.825 5.837 6.68 4.203 9.06 3l1.417 2.476c-1.61.928-2.887 2.08-3.832 3.455-.945 1.341-1.47 2.906-1.575 4.694.42-.207.875-.31 1.365-.31 1.085 0 1.96.344 2.625 1.032.7.687 1.05 1.581 1.05 2.682 0 1.203-.367 2.166-1.102 2.888C8.273 20.639 7.345 21 6.225 21Zm12.022 0c-1.364 0-2.502-.533-3.412-1.599-.875-1.1-1.313-2.63-1.313-4.59 0-2.579.665-4.883 1.995-6.911 1.33-2.063 3.186-3.697 5.566-4.9L22.5 5.476c-1.61.928-2.887 2.08-3.832 3.455-.945 1.341-1.47 2.906-1.575 4.694.42-.207.875-.31 1.364-.31 1.085 0 1.96.344 2.625 1.032.7.687 1.05 1.581 1.05 2.682 0 1.203-.367 2.166-1.102 2.888-.735.722-1.663 1.083-2.783 1.083Z" fill="#A5A5A5"/></svg>