<svg xmlns="http://www.w3.org/2000/svg" width="340" height="166" fill="none"><path opacity=".2" d="M278.805 117.412c7.132-7.177 13.595-15.025 19.327-23.396a167.13 167.13 0 0 0 23.029-49.408L340 54.243c-9.105-13.568-16.685-34.565-20.58-51.204-7.862 15.172-20.35 33.644-32.503 44.55l19.637-4.465c-4.07 15.406-10.585 30.188-19.24 43.65-5.054 7.87-10.817 15.297-17.228 22.14a156.32 156.32 0 0 1-21.038 18.65c-15.12 11.137-32.305 19.56-50.514 24.507-18.198 4.977-37.368 6.485-56.245 4.683-18.877-1.844-37.43-7.282-54.46-15.884-17.04-8.59-32.524-20.38-45.46-34.586-12.957-14.187-23.252-30.857-30.268-48.868C5.075 39.407 1.42 20.054 1.243.598 1.233.273.972.01.648 0 .314-.01.042.262.032.598-.354 20.18 2.778 39.888 9.397 58.434s16.653 35.917 29.558 50.9c12.874 14.993 28.514 27.66 45.972 37.11 17.447 9.462 36.68 15.727 56.465 18.242 19.775 2.473 40.04 1.488 59.534-3.248 19.494-4.705 38.1-13.15 54.68-24.623 8.28-5.74 16.058-12.248 23.2-19.404z" fill="#04c40b"/></svg>
