<svg xmlns="http://www.w3.org/2000/svg" width="64.195" height="53" viewBox="0 0 16.985 14.023"><g fill="#177de6"><path d="M16.818 7.697c-.141-.138-.321-.063-.487-.113-.013 0-.026-.013-.026-.013-.077-.038-.154-.1-.231-.138a.56.56 0 0 0-.487.05c-.167.1-.282.251-.436.363l-.269.238-.718.601c-.321.263-.654.601-1.065.702-.026 0-.026.038-.013.05.141.125.231.263.257.426.077.388-.218.752-.552.889-.192.088-.411.113-.616.113a4.22 4.22 0 0 1-.411-.025l-.924-.15-.911-.15c-.718-.088-1.308-.038-1.783.138-.064.025-.141-.012-.167-.075s.013-.138.077-.163c.526-.188 1.142-.238 1.911-.15l.936.15.911.15c.308.038.616.05.898-.063.231-.1.449-.351.398-.614-.09-.438-.731-.539-1.103-.589-1.013-.138-2.001-.438-2.976-.789l-.398-.15c-1.142-.438-2.463-.702-3.656-.301-.808.276-1.321.977-2.065 1.34l-.859.376 1.475 2.844.398-.251a5.02 5.02 0 0 1 1.655-.476c1.27-.138 2.425.351 3.63.689.449.125.924.2 1.398.175.795-.025 1.18-.388 1.308-.451l2.014-1.015c.616-.263 1.026-.464 1.591-1.127.423-.489.783-1.015 1.155-1.553.141-.2.321-.413.308-.664-.051-.063-.09-.2-.167-.276z"/><path fill-rule="evenodd" d="M1.852 14.023l1.458-1.04-1.706-3.295-1.604.63zm.855-1.265c0 .242-.201.438-.449.438s-.449-.196-.449-.438.201-.438.449-.438.449.196.449.438z"/></g><path d="M14.625 5.205c0 .503-.18.908-.539 1.215s-.862.486-1.509.546v.652a.32.32 0 0 1-.321.321h0a.32.32 0 0 1-.321-.321v-.633a5.44 5.44 0 0 1-1.672-.277.51.51 0 0 1-.333-.49h0c0-.411.44-.691.834-.575l.145.041a5.23 5.23 0 0 0 1.026.185V4.399l-.314-.123c-.618-.247-1.057-.514-1.316-.802s-.384-.65-.384-1.077c0-.459.176-.835.529-1.129s.851-.478 1.485-.541V.321A.32.32 0 0 1 12.257 0h0a.32.32 0 0 1 .321.321v.386c.499.022.965.1 1.398.233.31.095.448.441.328.742h0c-.125.314-.482.462-.808.37-.302-.085-.608-.141-.919-.168v1.4c.609.237 1.042.443 1.298.617s.448.365.567.574.183.452.183.731zm-1.41.071c0-.133-.053-.245-.159-.337s-.265-.187-.478-.285v1.181c.425-.073.637-.259.637-.56zm-1.883-2.88c0 .139.047.255.141.346s.251.18.464.275V1.903c-.403.06-.604.225-.604.493z" fill="#04b70a"/></svg>
