<svg xmlns="http://www.w3.org/2000/svg" width="228" height="92" fill="#04c40b" opacity=".2"><path d="M2.385 49.232c6.325-7.587 13.428-14.49 21.29-20.33 7.845-5.84 16.43-10.58 25.476-13.938C58.2 11.606 67.7 9.66 77.27 9.058s19.18.11 28.56 1.932 18.534 4.738 27.307 8.525c8.774 3.77 17.166 8.43 25.1 13.726a177.77 177.77 0 0 1 22.376 17.832l1.308 1.23 1.3 1.243c.862.818 1.704 1.667 2.547 2.516l1.256 1.273 1.24 1.287 1.22 1.302c.412.44.825.864 1.22 1.318 3.23 3.513 6.324 7.142 9.295 10.874a8.41 8.41 0 0 0 11.852 1.327 8.49 8.49 0 0 0 1.33-11.899c-.1-.138-.22-.26-.335-.4l-.015-.017c-3.462-3.823-7.062-7.53-10.787-11.102l-1.412-1.335-1.413-1.32-1.43-1.304-1.43-1.288-2.915-2.532-1.467-1.26-1.485-1.228c-7.968-6.56-16.425-12.483-25.32-17.653-8.9-5.156-18.24-9.573-27.927-13.02s-19.715-5.955-29.912-7.25C97.14.54 86.8.426 76.607 1.732c-.634.074-1.27.18-1.906.27l-1.89.287-1.894.32-1.882.368c-2.505.508-5.002 1.097-7.46 1.786s-4.904 1.445-7.312 2.316-4.775 1.81-7.102 2.85c-9.307 4.16-17.93 9.69-25.627 16.22C13.8 32.674 7.022 40.173 1.12 48.25c-.257.365-.187.856.175 1.13.35.24.82.185 1.09-.147z"/><path d="M227.21 91.163c-5.524-15.196-10.402-35.745-10.24-51.22l-13.313 23.48-25.2 9.49c15.244 2.27 34.69 10.366 48.752 18.25z"/></svg>
