<svg xmlns="http://www.w3.org/2000/svg" width="50" height="50" fill="none"><g clip-path="url(#A)"><path d="M46.68 10.398h-1.955l.002-3.495a4.26 4.26 0 0 0-4.253-4.258l-14.838-.008c-.846 0-1.641.329-2.238.926L1.246 25.714C.443 26.518 0 27.586 0 28.723s.443 2.205 1.246 3.009l14.375 14.375a4.24 4.24 0 0 0 3.009 1.244c1.09 0 2.18-.415 3.009-1.244l13.947-13.947c.382-.381.382-1 0-1.381s-1-.381-1.381 0L20.259 44.727c-.898.898-2.358.898-3.256 0L2.628 30.351a2.29 2.29 0 0 1 0-3.256L24.778 4.944a1.2 1.2 0 0 1 .855-.354h.001l14.838.008c1.27 0 2.302 1.034 2.301 2.304l-.005 8.183H38.37c-.379 0-.722-.155-.97-.404a3.58 3.58 0 0 0 1.125-.761c1.403-1.404 1.403-3.687 0-5.091s-3.687-1.404-5.091 0-1.403 3.687 0 5.091a3.58 3.58 0 0 0 1.834.982c.478 1.248 1.688 2.137 3.102 2.137h4.398l-.003 4.681a1.2 1.2 0 0 1-.354.855l-2.681 2.681c-.382.381-.382 1 0 1.381s.999.381 1.381 0l2.681-2.681c.597-.597.926-1.39.926-2.235l.003-4.683h1.959c1.831 0 3.32-1.489 3.32-3.32s-1.49-3.32-3.32-3.32zm-11.864-.188a1.64 1.64 0 0 1 1.165-.481c.422 0 .843.161 1.164.481a1.65 1.65 0 0 1 .255.333c-1.072.328-1.914 1.186-2.222 2.267-.129-.072-.252-.162-.362-.272a1.65 1.65 0 0 1 0-2.329zm11.865 4.875h-1.958l.002-2.734h1.956a1.37 1.37 0 0 1 1.367 1.367 1.37 1.37 0 0 1-1.367 1.367z" fill="#333"/><g fill="#177de6"><path d="M15.763 27.276c.12.432.513.715.94.715.087 0 .175-.011.262-.036l10.025-2.79c.52-.145.824-.683.679-1.203s-.683-.823-1.203-.679l-10.025 2.79a.98.98 0 0 0-.679 1.203zm4.413 1.288a2.86 2.86 0 0 0 0 4.072 2.87 2.87 0 0 0 4.072 0c1.123-1.123 1.123-2.95 0-4.072s-2.95-1.123-4.072 0zm2.691 2.691a.93.93 0 0 1-1.31 0 .92.92 0 0 1 0-1.31c.181-.18.418-.271.655-.271s.474.09.655.271a.93.93 0 0 1 0 1.31zm1.865-8.505c1.123-1.123 1.123-2.95 0-4.072a2.86 2.86 0 0 0-4.072 0c-1.123 1.123-1.123 2.949 0 4.072a2.87 2.87 0 0 0 4.072 0zm-2.691-2.691a.92.92 0 0 1 .655-.271.92.92 0 0 1 .655.271.93.93 0 0 1 0 1.31.93.93 0 0 1-1.31 0 .93.93 0 0 1 0-1.31zM9.713 25.258c-.381-.381-1-.381-1.381 0l-2.775 2.775c-.183.183-.286.431-.286.691s.103.507.286.69l12.384 12.384c.19.19.441.286.691.286a.97.97 0 0 0 .69-.286l18.515-18.515c.382-.381.382-1 0-1.381L25.453 9.517c-.183-.183-.431-.286-.691-.286s-.507.103-.69.286L13.856 19.733c-.381.381-.381 1 0 1.381s1 .381 1.381 0l9.526-9.526L35.765 22.59 18.631 39.724 7.629 28.723l2.084-2.084c.381-.381.381-.999 0-1.381z"/></g><path d="M37.658 27.732c-.257 0-.509.105-.69.286s-.286.434-.286.691.104.509.286.69.433.286.69.286.509-.104.691-.286.286-.434.286-.69-.105-.509-.286-.691-.434-.286-.691-.286z" fill="#333"/><path d="M12.475 23.876a.98.98 0 0 0 0-1.381.98.98 0 0 0-.69-.286c-.257 0-.509.105-.69.286a.98.98 0 0 0 0 1.381.98.98 0 0 0 .69.286c.258 0 .508-.103.69-.286z" fill="#177de6"/></g><defs><clipPath id="A"><path fill="#fff" d="M0 0h50v50H0z"/></clipPath></defs></svg>
