<svg xmlns="http://www.w3.org/2000/svg" width="50" height="50" fill="none"><g clip-path="url(#A)"><g fill="#333"><path d="M36.799 34.765c-.431 0-.841.094-1.21.262-.441-1.07-1.494-1.825-2.721-1.825a2.93 2.93 0 0 0-1.966.755 2.93 2.93 0 0 0-2.955-.584v-4.654c0-1.622-1.32-2.942-2.942-2.942s-2.942 1.32-2.942 2.942V41.02l-.561-.921a3.02 3.02 0 0 0-4.116-1.051c-1.371.792-1.906 2.529-1.218 3.954l3.111 6.444c.168.349.517.552.88.552a.97.97 0 0 0 .424-.097c.486-.234.689-.818.455-1.304l-3.111-6.444a1.09 1.09 0 0 1 .435-1.414 1.08 1.08 0 0 1 1.471.376l2.372 3.892c.228.374.677.55 1.098.432s.713-.502.713-.94v-15.78a.99.99 0 0 1 .989-.989.99.99 0 0 1 .989.989v12.188c0 .539.437.977.977.977s.977-.437.977-.977v-4.764a.99.99 0 0 1 .989-.989.99.99 0 0 1 .989.989v.703 4.061c0 .539.437.977.976.977s.977-.437.977-.977v-4.061-.703a.99.99 0 0 1 .989-.989.99.99 0 0 1 .989.989v1.563 1.259 1.941c0 .539.437.977.977.977s.977-.437.977-.977v-1.941-1.259a.99.99 0 0 1 .989-.989.99.99 0 0 1 .989.989v11.316c0 .539.437.977.977.977s.977-.437.977-.977V37.707c0-1.622-1.32-2.942-2.942-2.942zM25.004 22.46a6.27 6.27 0 0 0-6.259 6.259c0 .539.437.977.977.977s.976-.437.976-.977a4.31 4.31 0 0 1 4.306-4.306 4.31 4.31 0 0 1 4.306 4.306c0 .539.437.977.977.977s.977-.437.977-.977a6.27 6.27 0 0 0-6.259-6.259zm9.017 2.48c-1.528-3.642-5.067-5.996-9.017-5.996a9.79 9.79 0 0 0-9.775 9.775c0 .539.437.977.976.977s.976-.437.976-.977c0-4.313 3.509-7.822 7.822-7.822 3.161 0 5.993 1.883 7.216 4.798a.98.98 0 0 0 1.278.523c.497-.208.731-.781.523-1.278zm-.219 2.769c-.544.002-.979.441-.977.981v.029c0 .539.437.977.977.977s.976-.437.976-.977v-.038c-.002-.538-.439-.972-.976-.972z"/></g><g fill="#177de6"><path d="M24.999 0a3.62 3.62 0 0 0-3.613 3.613 3.62 3.62 0 0 0 2.637 3.478v5.422c0 .539.437.977.977.977s.977-.437.977-.977V7.092a3.62 3.62 0 0 0 2.637-3.478A3.62 3.62 0 0 0 24.999 0zm0 5.274c-.915 0-1.66-.745-1.66-1.66s.745-1.66 1.66-1.66 1.66.745 1.66 1.66-.745 1.66-1.66 1.66zm21.388 16.112a3.62 3.62 0 0 0-3.478 2.637h-5.423c-.539 0-.977.437-.977.977s.437.976.977.976h5.423a3.62 3.62 0 0 0 3.478 2.637A3.62 3.62 0 0 0 50 24.999a3.62 3.62 0 0 0-3.613-3.613zm0 5.273c-.915 0-1.66-.745-1.66-1.66s.745-1.66 1.66-1.66 1.66.745 1.66 1.66-.745 1.66-1.66 1.66zm-28.169-9.823l-5.19-5.19a3.59 3.59 0 0 0 .462-1.77 3.59 3.59 0 0 0-1.058-2.555 3.59 3.59 0 0 0-2.555-1.058 3.59 3.59 0 0 0-2.555 1.058 3.62 3.62 0 0 0 0 5.11 3.59 3.59 0 0 0 2.555 1.058c.63 0 1.235-.161 1.77-.462l5.19 5.19c.191.191.441.286.691.286s.5-.095.691-.286c.381-.381.381-1 0-1.381zm-7.167-5.786a1.65 1.65 0 0 1-2.348 0c-.647-.647-.647-1.701 0-2.348a1.65 1.65 0 0 1 2.348 0 1.65 1.65 0 0 1 0 2.348zm14.638 3.884a.98.98 0 0 0-1.666.691.98.98 0 0 0 .286.69c.182.182.434.286.69.286a.98.98 0 0 0 .69-.286.99.99 0 0 0 .286-.69c0-.256-.105-.509-.286-.69zm16.989-7.612a3.59 3.59 0 0 0-5.11 0 3.59 3.59 0 0 0-1.058 2.555 3.59 3.59 0 0 0 .462 1.77l-5.924 5.924c-.381.381-.381 1 0 1.381.191.191.441.286.691.286s.5-.095.691-.286l5.924-5.924a3.59 3.59 0 0 0 4.325-.596 3.62 3.62 0 0 0 0-5.11zm-1.381 3.729a1.65 1.65 0 0 1-2.348 0 1.65 1.65 0 0 1 0-2.348 1.65 1.65 0 0 1 2.348 0c.647.647.647 1.7 0 2.348zM12.5 24.023H7.091a3.62 3.62 0 0 0-3.478-2.637A3.62 3.62 0 0 0 0 24.999a3.62 3.62 0 0 0 3.613 3.613 3.62 3.62 0 0 0 3.478-2.637H12.5c.539 0 .977-.437.977-.976s-.437-.977-.977-.977zM3.613 26.66c-.915 0-1.66-.745-1.66-1.66s.745-1.66 1.66-1.66 1.66.745 1.66 1.66-.745 1.66-1.66 1.66z"/></g></g><defs><clipPath id="A"><path fill="#fff" d="M0 0h50v50H0z"/></clipPath></defs></svg>
