<svg xmlns="http://www.w3.org/2000/svg" width="50" height="50" fill="none"><path d="M49.023 34.179h-.977V2.93c0-1.616-1.315-2.93-2.93-2.93H4.883c-1.616 0-2.93 1.314-2.93 2.93v31.25H.977c-.539 0-.977.438-.977.977v2.93c0 1.615 1.314 2.93 2.93 2.93h23.696v6.055c0 1.615 1.314 2.93 2.93 2.93h11.655c1.615 0 2.93-1.314 2.93-2.93v-6.055h2.93c1.615 0 2.93-1.314 2.93-2.93v-2.93c0-.539-.437-.977-.977-.977zm-4.883 0v-1.953h1.953v1.953H44.14zM4.883 1.953h40.234a.98.98 0 0 1 .977.977v.977H3.906V2.93a.98.98 0 0 1 .977-.977zm-.977 30.273h.977c.539 0 .977-.437.977-.977s-.437-.977-.977-.977h-.977V5.859h42.187v24.414H44.14v-6.64c0-1.616-1.314-2.93-2.93-2.93H29.556a2.91 2.91 0 0 0-1.262.287L24.1 16.797h1.548c.539 0 .977-.437.977-.977s-.437-.977-.977-.977h-3.906c-.539 0-.977.437-.977.977v3.906c0 .539.437.977.977.977s.977-.438.977-.977v-1.549l4.193 4.193a2.91 2.91 0 0 0-.286 1.262v6.64H13.672c-.539 0-.976.437-.976.977s.437.977.976.977h12.954v2.93h-6.509c0-.539-.437-.977-.977-.977H3.906v-1.953zm-.977 6.836a.98.98 0 0 1-.977-.976v-1.953h16.473c.338.584.97.977 1.691.977h6.509v1.953H2.93zm39.257 8.008a.98.98 0 0 1-.976.977H29.556a.98.98 0 0 1-.977-.977V24.037l4.478 4.479h-1.549c-.539 0-.977.437-.977.977s.438.977.977.977h3.906c.539 0 .977-.437.977-.977v-3.906c0-.539-.437-.977-.977-.977s-.977.437-.977.977v1.548l-4.478-4.478h11.251a.98.98 0 0 1 .976.977V47.07zm5.86-8.985a.98.98 0 0 1-.977.976h-2.93v-2.93h3.907v1.953z" fill="#333"/><path d="M24.1 16.797l5.859 5.859 4.478 4.479v-1.548c0-.539.437-.977.977-.977s.977.437.977.977v3.906c0 .539-.437.977-.977.977h-3.906c-.539 0-.977-.437-.977-.977s.438-.977.977-.977h1.549l-4.478-4.478-1.667-1.667-4.193-4.193v1.549a.98.98 0 0 1-.977.977c-.539 0-.976-.438-.976-.977V15.82c0-.539.437-.977.976-.977h3.906c.539 0 .976.437.976.977s-.437.977-.976.977H24.1zm11.284 28.32h-.001c-.539 0-.976.437-.976.977s.438.977.977.977.977-.437.977-.977-.437-.977-.977-.977zm2.409-35.351h5.371c.539 0 .977-.437.977-.977s-.437-.977-.977-.977h-5.37c-.539 0-.977.437-.977.977s.437.977.976.977zm-4.394 0c.539 0 .977-.437.977-.977s-.437-.977-.977-.977h0c-.539 0-.977.437-.977.977s.438.977.977.977z" fill="#177de6"/><path d="M9.278 30.273h-.001c-.539 0-.976.437-.976.977s.438.977.977.977.977-.437.977-.977-.437-.977-.977-.977z" fill="#333"/></svg>
