<svg xmlns="http://www.w3.org/2000/svg" width="50" height="50" fill="none"><path d="M45.327 38.041a.69.69 0 0 1-.315-.077l-3.966-2.085-3.966 2.086c-.112.059-.237.085-.363.076a.68.68 0 0 1-.349-.127.67.67 0 0 1-.229-.292c-.048-.117-.061-.245-.04-.369l.758-4.417-3.209-3.128a.68.68 0 0 1-.184-.322.67.67 0 0 1 .014-.371c.04-.12.111-.227.207-.308s.214-.134.339-.152l4.435-.644 1.984-4.019a.7.7 0 0 1 .257-.253.71.71 0 0 1 .349-.093c.122 0 .242.032.349.093a.7.7 0 0 1 .257.253l1.983 4.015 4.435.644c.125.018.242.071.338.152a.68.68 0 0 1 .207.308.67.67 0 0 1 .013.371.68.68 0 0 1-.184.322l-3.209 3.128.757 4.417c.017.097.012.196-.014.291a.68.68 0 0 1-.135.258.66.66 0 0 1-.232.177c-.09.041-.186.063-.285.063v.003zm-4.281-3.602c.11 0 .218.027.315.078l3.069 1.614-.586-3.418a.68.68 0 0 1 .023-.323.67.67 0 0 1 .171-.275l2.484-2.421-3.432-.498c-.108-.016-.211-.058-.3-.122s-.16-.15-.208-.248l-1.535-3.108-1.535 3.108c-.048.098-.12.183-.209.248s-.192.107-.3.122l-3.432.498 2.483 2.421a.68.68 0 0 1 .171.275.67.67 0 0 1 .023.323l-.586 3.418 3.069-1.614c.097-.051.205-.078.315-.078v.001zM29.284 48.665a.69.69 0 0 1-.315-.077l-3.966-2.085-3.966 2.086c-.112.059-.238.085-.363.076a.68.68 0 0 1-.578-.419c-.048-.117-.061-.245-.04-.369l.757-4.417-3.209-3.128a.68.68 0 0 1-.171-.693.68.68 0 0 1 .207-.308c.096-.081.214-.134.339-.152l4.434-.644 1.984-4.019a.7.7 0 0 1 .606-.346.7.7 0 0 1 .349.093.71.71 0 0 1 .257.253l1.983 4.015 4.435.644c.125.018.242.071.338.152a.68.68 0 0 1 .207.308.67.67 0 0 1 .013.371c-.031.123-.094.234-.185.322l-3.209 3.128.757 4.417c.017.097.012.196-.014.291a.68.68 0 0 1-.135.258.66.66 0 0 1-.232.177c-.09.041-.186.063-.285.063v.003zm-4.281-3.602c.11 0 .218.027.315.078l3.069 1.614-.586-3.418a.67.67 0 0 1 .194-.598l2.484-2.421-3.433-.498c-.108-.016-.211-.058-.3-.122s-.16-.15-.208-.248l-1.535-3.108-1.535 3.108c-.048.098-.12.183-.209.248s-.192.106-.3.122l-3.432.498 2.483 2.421c.078.077.137.171.171.275a.67.67 0 0 1 .023.323l-.586 3.418 3.069-1.614c.097-.051.205-.078.315-.078z" fill="#333"/><path d="M29.217 19.892a.62.62 0 0 1-.096-.007l-1.04-.149c-.11-.016-.214-.058-.304-.124a.67.67 0 0 1-.21-.253l-.162-.338a.68.68 0 0 1 .33-.871.67.67 0 0 1 .5-.034c.165.053.303.168.386.32l.006.013.684.097c.169.024.323.111.43.244a.68.68 0 0 1-.065.919c-.125.117-.29.181-.46.181h.001zM18.656 32.845a.69.69 0 0 1-.285-.063.67.67 0 0 1-.232-.177c-.064-.075-.109-.163-.135-.258a.68.68 0 0 1-.014-.291l1.149-6.718-4.882-4.759c-.09-.088-.154-.199-.184-.322a.68.68 0 0 1 .22-.679c.096-.081.214-.134.338-.152l6.743-.976 3.018-6.114c.056-.113.143-.209.25-.275s.232-.102.358-.101.251.035.358.101.194.162.25.276l1.351 2.743a.68.68 0 0 1 .033.517c-.058.17-.181.31-.343.389a.68.68 0 0 1-.517.033c-.17-.058-.31-.181-.389-.343L25 14.163l-2.567 5.203c-.049.098-.12.183-.209.248s-.192.106-.3.122l-5.739.83 4.155 4.051a.68.68 0 0 1 .171.275.67.67 0 0 1 .023.323l-.978 5.72 5.135-2.695a.68.68 0 0 1 .629 0l5.135 2.695-.978-5.72a.68.68 0 0 1 .023-.323c.034-.104.092-.198.171-.275l4.155-4.051-1.401-.203c-.177-.026-.337-.121-.445-.264a.67.67 0 0 1-.127-.501.68.68 0 0 1 .265-.445.67.67 0 0 1 .501-.127l2.757.399a.68.68 0 0 1 .339.152.67.67 0 0 1 .22.679.68.68 0 0 1-.184.322l-4.888 4.761 1.149 6.718a.68.68 0 0 1-.04.368c-.047.116-.127.218-.229.292s-.222.118-.348.127a.68.68 0 0 1-.363-.075L25 29.601l-6.03 3.169a.67.67 0 0 1-.314.074z" fill="#177de6"/><path d="M13.235 38.041c-.11 0-.218-.027-.315-.077l-3.966-2.085-3.966 2.086c-.112.059-.238.085-.364.076s-.247-.053-.349-.128-.181-.176-.229-.293-.061-.245-.039-.37l.757-4.417-3.211-3.128c-.09-.088-.154-.2-.185-.322s-.026-.251.013-.371.111-.227.207-.308.214-.134.338-.152l4.436-.647 1.983-4.019c.062-.105.151-.193.257-.253s.226-.092.349-.092.243.032.349.092.195.148.257.253l1.984 4.019 4.435.644c.125.018.242.071.339.152s.168.188.207.308.044.248.014.371-.094.234-.184.322l-3.21 3.128.757 4.417c.017.097.012.196-.014.291s-.072.183-.135.258-.142.136-.232.177-.186.063-.285.063v.003zm-4.281-3.602c.11 0 .218.027.315.078l3.069 1.614-.586-3.418c-.019-.108-.011-.219.023-.323s.092-.199.171-.275l2.483-2.421-3.432-.498c-.109-.016-.212-.058-.3-.122s-.16-.15-.209-.248l-1.534-3.108-1.535 3.108c-.048.098-.12.183-.208.248s-.191.107-.3.122l-3.432.498 2.484 2.421c.078.077.137.171.171.275s.042.215.023.323L5.57 36.13l3.069-1.614c.097-.051.205-.078.315-.078v.001z" fill="#333"/></svg>
