<svg xmlns="http://www.w3.org/2000/svg" width="50" height="50" fill="none"><g clip-path="url(#A)"><path d="M13.376 31.468c.467-.269.627-.867.357-1.334a.98.98 0 0 0-1.334-.357c-.467.27-.627.867-.357 1.334s.867.627 1.334.357z" fill="#177de6"/><path d="M9.374 38.208l4.918 8.519c1.061 1.84 3.448 2.522 5.336 1.43 1.868-1.08 2.51-3.466 1.429-5.336l-2.93-5.075 2.537-1.465c.467-.27.627-.867.357-1.334l-1.27-2.2 18.705-3.669c2.171-.118 3.471-2.492 2.375-4.39l-3.246-5.621 2.074-3.141c.204-.309.216-.706.031-1.026l-1.953-3.383a.98.98 0 0 0-.904-.486l-3.757.226-3.603-6.241c-.522-.904-1.457-1.451-2.501-1.464h-.037c-1.009 0-1.924.502-2.467 1.351L11.712 21.153l-8.294 4.788a6.84 6.84 0 0 0-2.502 9.338c1.727 2.991 5.367 4.167 8.457 2.93zm9.993 5.59c.539.933.22 2.127-.716 2.668s-2.134.209-2.668-.715L11.1 37.292l3.383-1.953 4.883 8.459zm-2.215-7.744l-.977-1.692 1.692-.976.977 1.691-1.691.977zm19.197-23.038l1.35 2.338-1.203 1.823-2.326-4.03 2.18-.131zM26.103 5.972c.262-.429.678-.473.846-.468a.96.96 0 0 1 .833.488L39.14 25.666a.98.98 0 0 1-.822 1.464c-.133.003-.194.027-.535.091L25.768 6.409l.335-.438zm-1.634 2.093l11.289 19.553L18.72 30.96l-5.18-8.973L24.468 8.065zM2.608 34.302c-.429-.742-.655-1.584-.655-2.437a4.9 4.9 0 0 1 2.443-4.233l7.611-4.395 4.883 8.457-7.611 4.395a4.89 4.89 0 0 1-6.67-1.788z" fill="#333"/><g fill="#177de6"><path d="M10.35 32.087c-.27-.467-.867-.627-1.334-.357l-1.691.977a.98.98 0 0 1-1.334-.357c-.27-.467-.867-.627-1.334-.357s-.627.867-.357 1.334c.804 1.392 2.597 1.883 4.002 1.072l1.691-.977c.467-.27.627-.867.357-1.334zM48.549 5.639l-5.442 3.028c-.471.262-.641.857-.379 1.328s.856.641 1.328.378l5.441-3.028c.471-.262.641-.857.378-1.328s-.857-.641-1.328-.378zm-.571 10.115l-3.773-1.011c-.521-.14-1.057.169-1.196.691s.17 1.056.691 1.196l3.773 1.011c.524.141 1.057-.173 1.196-.69a.98.98 0 0 0-.691-1.196zM38.496 2.091l-1.012 3.774c-.14.521.169 1.056.69 1.196s1.056-.169 1.196-.69l1.012-3.773c.14-.521-.169-1.057-.691-1.196s-1.056.169-1.196.69z"/></g></g><defs><clipPath id="A"><path fill="#fff" d="M0 0h50v50H0z"/></clipPath></defs></svg>
