<svg xmlns="http://www.w3.org/2000/svg" width="50" height="50" fill="none"><g clip-path="url(#A)"><path d="M41.655 27.728L34.19 16.025c1.058-.556 1.781-1.665 1.781-2.941 0-1.396-.867-2.593-2.09-3.083l2.262-7.907c.098-.341.003-.708-.248-.959-1.505-1.504-3.952-1.504-5.457 0-.36.36-.838.558-1.347.558s-.987-.198-1.349-.56l-.005-.005c-1.499-1.499-3.943-1.504-5.448-.009l-.028.028a1.91 1.91 0 0 1-2.69-.005l-.007-.007c-1.505-1.504-3.952-1.504-5.457 0-.251.251-.346.618-.248.96l2.267 7.905c-1.226.489-2.095 1.687-2.095 3.085 0 1.276.723 2.385 1.781 2.941L8.345 27.728a14.29 14.29 0 0 0-.49 14.751A14.29 14.29 0 0 0 20.555 50h8.89a14.29 14.29 0 0 0 12.7-7.521 14.29 14.29 0 0 0-.489-14.751zM18.182 2.515l.007.007a3.87 3.87 0 0 0 5.448.009l.028-.028a1.91 1.91 0 0 1 2.692.007l.005.005c1.504 1.504 3.952 1.504 5.457 0a1.91 1.91 0 0 1 2.264-.323l-2.165 7.571H18.089l-2.171-7.571a1.91 1.91 0 0 1 2.264.323zm22.25 39.025c-2.233 4.074-6.341 6.506-10.987 6.506h-8.89c-4.646 0-8.753-2.432-10.987-6.506s-2.075-8.845.423-12.762l7.894-12.374h2.72c.539 0 .977-.437.977-.977s-.437-.977-.977-.977H17.35a1.37 1.37 0 0 1-1.367-1.367 1.37 1.37 0 0 1 1.367-1.367h.003H32.65a1.37 1.37 0 0 1 1.367 1.367 1.37 1.37 0 0 1-1.367 1.367h-3.255c-.539 0-.977.437-.977.977s.437.977.977.977h2.72l7.894 12.374c2.499 3.917 2.657 8.688.423 12.762z" fill="#333"/><path d="M29.339 34.717a3 3 0 0 1-.924 2.227c-.605.605-1.424.984-2.459 1.139v1.039c0 .253-.077.456-.231.611-.154.165-.358.247-.611.247s-.456-.082-.61-.247c-.154-.154-.231-.358-.231-.611v-1.007a7.46 7.46 0 0 1-1.831-.396c-.594-.209-1.106-.484-1.535-.825a.83.83 0 0 1-.297-.33c-.055-.121-.082-.27-.082-.446a.99.99 0 0 1 .198-.611c.143-.176.302-.264.479-.264.11 0 .209.022.297.066.099.033.226.094.38.181.506.33 1.001.572 1.485.726a5.19 5.19 0 0 0 1.551.231c.737 0 1.303-.143 1.7-.429.407-.286.611-.699.611-1.238 0-.319-.11-.578-.33-.776s-.495-.352-.825-.462c-.33-.121-.792-.259-1.386-.413-.825-.209-1.496-.418-2.013-.627a3.57 3.57 0 0 1-1.337-.99c-.374-.44-.561-1.034-.561-1.782 0-.891.319-1.65.957-2.277s1.474-1.017 2.508-1.171v-1.04c0-.253.077-.456.231-.61.154-.165.358-.248.611-.248s.456.082.61.248c.154.154.231.357.231.61v1.023c1.111.143 2.068.544 2.871 1.204.264.198.396.457.396.776a.94.94 0 0 1-.215.611c-.132.176-.291.264-.479.264-.099 0-.198-.017-.297-.05-.088-.033-.209-.099-.363-.198-.451-.319-.88-.555-1.287-.709-.396-.165-.869-.247-1.419-.247-.682 0-1.227.154-1.634.462-.407.297-.61.709-.61 1.237 0 .363.116.66.346.891.231.22.523.39.875.511s.831.259 1.436.413c.803.198 1.457.401 1.963.611s.935.528 1.287.957c.363.418.544.99.544 1.716z" fill="#177de6"/><path d="M25 16.404c.257 0 .509-.104.69-.286s.286-.434.286-.69-.105-.509-.286-.691-.434-.286-.69-.286-.509.104-.691.286-.286.434-.286.691.105.509.286.69.433.286.691.286z" fill="#333"/></g><defs><clipPath id="A"><path fill="#fff" d="M0 0h50v50H0z"/></clipPath></defs></svg>
