<svg xmlns="http://www.w3.org/2000/svg" width="50" height="50" fill="none"><path d="M30.859 34.766a.98.98 0 0 0-.977.977.98.98 0 0 0 .977.977c.539 0 .976-.438.976-.977s-.437-.977-.976-.977zM47.07 1.563H2.93C1.314 1.563 0 2.877 0 4.492v37.109c0 1.615 1.314 2.93 2.93 2.93h3.223v2.93c0 .539.437.977.977.977h8.105c.539 0 .976-.437.976-.977v-2.93h17.578v2.93c0 .539.437.977.977.977h8.105c.539 0 .977-.437.977-.977v-2.93h3.223c1.615 0 2.93-1.314 2.93-2.93V4.492c0-1.615-1.314-2.93-2.93-2.93zM14.258 46.484H8.105v-1.953h6.152v1.953zm27.637 0h-6.152v-1.953h6.152v1.953zm6.152-4.883a.98.98 0 0 1-.977.977H2.93a.98.98 0 0 1-.977-.977V4.492a.98.98 0 0 1 .977-.977h44.14a.98.98 0 0 1 .977.977v37.109zM42.871 5.469H7.129c-.539 0-.977.437-.977.977v5.051c-1.137.403-1.953 1.489-1.953 2.762v3.906c0 1.273.816 2.359 1.953 2.762v4.242c-1.137.403-1.953 1.489-1.953 2.762v3.906c0 1.273.816 2.359 1.953 2.762v5.051c0 .539.437.977.977.977h35.742c.539 0 .977-.437.977-.977V6.445c0-.539-.437-.977-.977-.977zM6.152 14.258a.98.98 0 0 1 .977-.977c.539 0 .977.437.977.977v3.906a.98.98 0 0 1-.977.976.98.98 0 0 1-.977-.976v-3.906zm.977 18.555a.98.98 0 0 1-.977-.977V27.93a.98.98 0 0 1 .977-.977c.539 0 .977.437.977.977v3.906a.98.98 0 0 1-.977.977zm34.766 5.859H8.105v-4.074c1.137-.403 1.953-1.489 1.953-2.762V27.93a2.93 2.93 0 0 0-1.953-2.763v-4.241c1.137-.403 1.953-1.489 1.953-2.762v-3.906a2.93 2.93 0 0 0-1.953-2.763V7.422h33.789v31.25z" fill="#333"/><path d="M21.094 13.281a8.79 8.79 0 0 0-8.789 8.789 8.79 8.79 0 0 0 8.789 8.789 8.79 8.79 0 0 0 8.789-8.789 8.79 8.79 0 0 0-8.789-8.789zm5.475 12.883l-.641-.641c-.381-.381-1-.381-1.381 0s-.381 1 0 1.381l.641.641c-.917.688-1.983 1.13-3.117 1.291v-.907c0-.539-.437-.977-.977-.977s-.977.437-.977.977v.907A6.76 6.76 0 0 1 17 27.545l.641-.641c.381-.381.381-1 0-1.381s-.999-.381-1.381 0l-.641.641c-.688-.917-1.13-1.983-1.291-3.117h.907c.539 0 .976-.437.976-.977s-.437-.977-.976-.977h-.907a6.76 6.76 0 0 1 1.291-3.117l.641.641c.381.381 1 .381 1.381 0s.381-1 0-1.381L17 16.595c.917-.688 1.983-1.13 3.117-1.291v.907c0 .539.437.977.977.977s.977-.437.977-.977v-.907a6.76 6.76 0 0 1 3.117 1.291l-.641.641c-.381.381-.381 1 0 1.381s.999.381 1.381 0l.641-.641c.688.917 1.13 1.983 1.291 3.117h-.907c-.539 0-.976.437-.976.977s.437.967.976.967h.907a6.8 6.8 0 0 1-1.291 3.127zm-5.475-7.023c-1.616 0-2.93 1.314-2.93 2.93S19.478 25 21.094 25s2.93-1.314 2.93-2.93-1.314-2.93-2.93-2.93zm0 3.906a.98.98 0 0 1-.977-.977.98.98 0 0 1 .977-.976.98.98 0 0 1 .976.976.98.98 0 0 1-.976.977zm15.625-9.766c-1.616 0-2.93 1.314-2.93 2.93V27.93c0 1.615 1.314 2.93 2.93 2.93s2.93-1.314 2.93-2.93V16.211a2.93 2.93 0 0 0-2.93-2.93zm.977 14.649a.98.98 0 0 1-.977.976.98.98 0 0 1-.977-.976V16.211a.98.98 0 0 1 .977-.976c.539 0 .977.437.977.976V27.93z" fill="#177de6"/><path d="M26.953 34.766h-7.812c-.539 0-.976.437-.976.977s.437.977.976.977h7.813c.539 0 .977-.437.977-.977s-.437-.977-.977-.977z" fill="#333"/></svg>
