<svg xmlns="http://www.w3.org/2000/svg" width="50" height="50" fill="none"><g clip-path="url(#A)"><g fill="#333"><path d="M36.093 8.382c-.381-.382-.999-.382-1.381 0a.98.98 0 0 0 0 1.381l.033.032c.384.35.978.339 1.348-.032.364-.364.381-.941.052-1.324l-.052-.057zm11.05-5.526a9.78 9.78 0 0 0-13.813 0l-7.64 7.64c-2.756 2.756-3.594 6.887-2.186 10.475l-2.532 2.532c-3.588-1.408-7.719-.569-10.475 2.187l-7.64 7.64a9.78 9.78 0 0 0 0 13.813 9.78 9.78 0 0 0 13.813 0l7.64-7.64c2.757-2.756 3.594-6.887 2.187-10.475l2.532-2.532c3.617 1.419 7.739.549 10.475-2.187l7.641-7.64a9.78 9.78 0 0 0 0-13.813zM22.927 38.123l-7.64 7.64a7.814 7.814 0 1 1-11.05-11.05l7.64-7.64a7.83 7.83 0 0 1 7.549-2.023l-2.716 2.716a4.87 4.87 0 0 0-2.761 1.379l-7.639 7.64c-1.907 1.905-1.907 5 0 6.906s5 1.907 6.906 0l7.64-7.639a4.87 4.87 0 0 0 1.379-2.761l2.716-2.716c.71 2.659-.028 5.553-2.023 7.549zm-7.597-3.454a3.88 3.88 0 0 0 3.01 1.135l-6.506 6.505a2.93 2.93 0 0 1-4.143-4.143l6.505-6.506c-.072 1.161.356 2.232 1.134 3.009zm5.279-2.516l-1.135 1.135c-.76.76-1.998.764-2.762 0a1.95 1.95 0 0 1 0-2.761l13.813-13.813c.76-.76 1.999-.764 2.762 0s.762 2 0 2.761L20.609 32.153zm17.513-9.224c-1.995 1.995-4.89 2.733-7.549 2.023l2.716-2.716a4.87 4.87 0 0 0 2.76-1.378l7.64-7.641c1.906-1.905 1.907-5 0-6.906-1.575-1.576-4.016-1.886-5.936-.753-.465.274-.619.873-.345 1.337s.873.619 1.337.345a2.93 2.93 0 0 1 3.562.452c1.143 1.142 1.143 3 0 4.143l-6.505 6.506a3.88 3.88 0 0 0-3.897-4.153 4.06 4.06 0 0 0-.247.009l1.671-1.671c.381-.381.381-1 0-1.381s-1-.381-1.381 0l-2.805 2.805a4.87 4.87 0 0 0-1.379 2.761l-2.716 2.716a7.83 7.83 0 0 1 2.022-7.549l7.64-7.64a7.814 7.814 0 1 1 11.051 11.051l-7.64 7.64z"/></g><g fill="#177de6"><path d="M16.022 16.022a.98.98 0 0 0 0-1.381l-4.144-4.144c-.381-.382-1-.382-1.382 0s-.382 1 0 1.381l4.144 4.144a.98.98 0 0 0 1.382 0zM5.209 20.214c0 .539.437.977.977.977h5.861c.539 0 .976-.437.976-.977s-.437-.977-.976-.977H6.185a.98.98 0 0 0-.977.977zm15.982-8.168V6.185c0-.539-.437-.977-.977-.977s-.977.438-.977.977v5.861a.98.98 0 0 0 .977.977c.539 0 .977-.437.977-.977zm12.787 21.932a.98.98 0 0 0 0 1.382l4.144 4.144c.381.382 1 .382 1.381 0s.382-1 0-1.381l-4.144-4.145a.98.98 0 0 0-1.381 0zm-5.071 3.976v5.861c0 .539.437.977.977.977s.977-.438.977-.977v-5.861c0-.539-.437-.977-.977-.977s-.977.437-.977.977zm15.885-8.07a.98.98 0 0 0-.977-.977h-5.86c-.54 0-.977.437-.977.977s.437.977.977.977h5.86a.98.98 0 0 0 .977-.977z"/></g></g><defs><clipPath id="A"><path fill="#fff" d="M0 0h50v50H0z"/></clipPath></defs></svg>
