<svg width="31" height="25" viewBox="0 0 31 25" fill="none" xmlns="http://www.w3.org/2000/svg">
<g id="noun_Justice_2170123">
<g id="Group">
<path id="Shape" fill-rule="evenodd" clip-rule="evenodd" d="M14.676 0.561546C14.8977 0.340575 15.1971 0.222117 15.4903 0.218689L15.4903 0.218552C15.7836 0.216666 16.0722 0.32974 16.2939 0.550712L20.269 4.51483C20.7123 4.95677 20.7124 5.67999 20.269 6.12197L19.519 6.87197C19.1094 7.28024 18.4541 7.31432 18.0083 6.96841L17.044 7.93267C19.1687 9.63084 22.0332 12.1447 24.4905 14.34C25.7675 15.4809 26.9285 16.5309 27.8012 17.3292C28.6738 18.1275 29.2476 18.6583 29.3976 18.8078C30.2046 19.6122 30.2046 20.9284 29.3976 21.7328C28.5906 22.5373 27.2689 22.5371 26.4619 21.7328V21.7221C26.312 21.5727 25.7843 21.0062 24.9833 20.1364C24.1824 19.2666 23.128 18.1093 21.9833 16.8364C19.7808 14.3874 17.2583 11.5294 15.5547 9.41151L14.5797 10.3865C14.9252 10.8308 14.903 11.4788 14.494 11.8865L13.744 12.6258C13.3006 13.0677 12.5695 13.0677 12.1261 12.6258L8.15105 8.67231C7.70763 8.2303 7.70766 7.50708 8.15105 7.06513L8.90105 6.31513C9.3087 5.90881 9.95544 5.87796 10.401 6.21869L13.8296 2.79012C13.4943 2.34629 13.5209 1.71547 13.926 1.31158L14.676 0.561546ZM15.8546 0.990117C15.7502 0.88606 15.6222 0.836723 15.4903 0.840152L15.4906 0.840563C15.3587 0.842449 15.2199 0.897203 15.1155 1.00126L14.3655 1.75126C14.1567 1.95941 14.1567 2.26095 14.3655 2.46913L14.462 2.56555C14.4695 2.57228 14.4766 2.57937 14.4834 2.5868L18.2226 6.31537C18.2345 6.3287 18.2453 6.34304 18.2547 6.35823L18.3404 6.43321C18.5492 6.64123 18.8709 6.65199 19.0797 6.44384L19.8297 5.69384C20.0385 5.48573 20.0385 5.16262 19.8297 4.95457L15.8546 0.990117ZM14.2689 3.24015L17.5689 6.54015L16.4225 7.69729C16.3993 7.70883 16.3777 7.72323 16.3582 7.74015L15.3725 8.73656C15.3562 8.75277 15.3419 8.77073 15.3296 8.79012L14.1618 9.94726L10.8618 6.64726L14.2689 3.24015ZM10.0691 6.75444C9.96467 6.65035 9.83471 6.59371 9.70479 6.59371L9.70472 6.59343C9.5748 6.59343 9.44484 6.65007 9.34044 6.75416L8.59044 7.50413C8.38165 7.71217 8.38163 8.02462 8.59044 8.2327L12.5655 12.1972C12.7743 12.4052 13.096 12.4052 13.3048 12.1972L14.0548 11.4471C14.2636 11.239 14.2636 10.9267 14.0548 10.7186L10.0691 6.75444ZM16.5942 8.38301L16.5942 8.38305L16.0051 8.97214C17.6913 11.0749 20.2221 13.9582 22.4443 16.4293C23.5871 17.7001 24.6343 18.8505 25.4336 19.7185C26.2328 20.5865 26.7953 21.1878 26.9014 21.2935C27.4722 21.8625 28.3878 21.8625 28.9585 21.2935C29.5294 20.7246 29.5294 19.8053 28.9585 19.2364C28.8525 19.1307 28.2544 18.5759 27.3835 17.7792C26.5127 16.9826 25.3585 15.9291 24.0835 14.79C21.6023 12.5734 18.7042 10.0637 16.5942 8.38305L16.5944 8.38287L16.5942 8.38301ZM2.85862 19.6008C2.85862 18.7055 3.59062 17.983 4.48719 17.983H18.3515C19.2481 17.983 19.9801 18.7055 19.9801 19.6008V20.383H20.6336C21.5615 20.383 22.3265 21.1372 22.3265 22.0651V22.0974C22.3265 23.0253 21.5615 23.7795 20.6336 23.7795H2.20506C1.27716 23.7795 0.512207 23.0253 0.512207 22.0974V22.0651C0.512207 21.1372 1.27716 20.383 2.20506 20.383H2.85862V19.6008ZM4.48729 18.5937H18.3516C18.9181 18.5937 19.3695 19.0378 19.3695 19.6008V20.383H3.48015V19.6008C3.48015 19.0378 3.92079 18.5937 4.48729 18.5937ZM3.11576 21.0044H2.20513C1.60846 21.0044 1.1337 21.4685 1.1337 22.0651V22.0974C1.1337 22.694 1.60846 23.1688 2.20513 23.1688H20.6337C21.2304 23.1688 21.7051 22.694 21.7051 22.0974V22.0651C21.7051 21.4685 21.2304 21.0044 20.6337 21.0044H19.7337H3.11576Z" fill="#009900"/>
</g>
</g>
</svg>
