<svg width="26" height="25" viewBox="0 0 26 25" fill="none" xmlns="http://www.w3.org/2000/svg">
<g id="noun_like_1027080">
<g id="Group">
<path id="Shape" fill-rule="evenodd" clip-rule="evenodd" d="M7.69803 10.6221H2.74347C2.31045 10.6221 1.91709 10.799 1.63219 11.0839C1.34727 11.3688 1.17041 11.7622 1.17041 12.1952V21.5592C1.17041 21.9922 1.34727 22.3856 1.63217 22.6705C1.9171 22.9555 2.31047 23.1323 2.74347 23.1323H7.69803C8.13103 23.1323 8.52443 22.9555 8.80933 22.6705C9.09425 22.3856 9.27111 21.9923 9.27111 21.5592V12.1952C9.27111 11.7622 9.09425 11.3688 8.80933 11.0839C8.52442 10.799 8.13103 10.6221 7.69803 10.6221ZM2.74347 11.3901H7.69803C7.91904 11.3901 8.12024 11.4808 8.26632 11.6269C8.41242 11.773 8.50311 11.9742 8.50311 12.1952V21.5592C8.50311 21.7803 8.41242 21.9815 8.26632 22.1275C8.12024 22.2736 7.91904 22.3643 7.69803 22.3643H2.74347C2.52248 22.3643 2.32128 22.2736 2.17518 22.1275C2.0291 21.9815 1.93841 21.7802 1.93841 21.5592V12.1952C1.93841 11.9742 2.0291 11.773 2.1752 11.6269C2.32128 11.4808 2.52248 11.3901 2.74347 11.3901Z" fill="#009900"/>
<path id="Path" d="M8.65037 11.446C8.45984 11.5371 8.37926 11.7655 8.47037 11.956C8.56147 12.1465 8.78983 12.2271 8.98036 12.136C8.99566 12.1287 14.2515 9.6919 13.4819 2.16653C14.5459 1.97236 17.9529 1.89524 16.4761 9.37863L16.4758 9.37856C16.4347 9.5866 16.5701 9.78858 16.7781 9.82964C16.8313 9.84013 16.884 9.83909 16.9338 9.82826C17.5663 9.74717 27.4667 8.54638 24.2979 13.4064L24.2968 13.4057C24.1991 13.5557 24.2195 13.7486 24.3351 13.8747C24.4797 14.0628 25.5782 15.5889 23.8307 16.439L23.8292 16.4387C23.6493 16.5263 23.5685 16.7359 23.6379 16.9195C23.6899 17.0754 24.2646 18.8975 22.9153 19.4758L22.914 19.4754C22.757 19.5426 22.6679 19.7022 22.6828 19.8636C22.6807 20.18 22.5969 22.7238 20.4455 22.431L20.4457 22.4299C20.426 22.4272 20.4064 22.4261 20.3871 22.4264H11.0475L9.0621 21.3345C8.87654 21.2327 8.64348 21.3005 8.5416 21.486C8.43973 21.6716 8.50755 21.9046 8.6931 22.0065L10.7452 23.1351C10.8045 23.1726 10.8749 23.1944 10.9503 23.1944H20.381C23.0322 23.5301 23.3928 20.9 23.4407 20.0706C24.8247 19.3099 24.6115 17.6672 24.4487 16.9762C26.3146 15.8802 25.4712 14.2048 25.0783 13.6018C28.3653 8.21612 19.5953 8.7841 17.3245 9.01399C18.9477 -0.168603 13.3596 1.38223 12.9702 1.50055C12.784 1.54649 12.6574 1.72549 12.6816 1.92053L12.6818 1.92051C13.5792 9.1627 8.66444 11.4392 8.65035 11.446L8.65037 11.446Z" fill="#009900"/>
</g>
</g>
</svg>
