<svg width="23" height="31" viewBox="0 0 23 31" fill="none" xmlns="http://www.w3.org/2000/svg">
<g id="noun_Award_3118489">
<g id="Group">
<path id="Shape" fill-rule="evenodd" clip-rule="evenodd" d="M13.0029 9.45815L11.3537 6.50094L11.3537 6.50094C11.3195 6.42586 11.2619 6.36064 11.1844 6.31741C10.9913 6.20973 10.7474 6.27896 10.6398 6.47205L10.9894 6.66705L10.6407 6.47313L8.97591 9.45814L5.63816 10.1159C5.5611 10.1274 5.48659 10.1614 5.42517 10.2184C5.2631 10.3687 5.2536 10.622 5.40396 10.7841L5.69745 10.5119L5.40504 10.7839L7.72966 13.2898L7.32384 16.6677C7.3111 16.7443 7.32047 16.8254 7.35558 16.9012C7.44848 17.1018 7.68645 17.1891 7.88706 17.0962L7.88673 17.0954L10.9894 15.6584L14.0687 17.0846C14.1392 17.123 14.2219 17.1407 14.3077 17.1304C14.5273 17.104 14.6838 16.9047 14.6575 16.6852L14.6571 16.6852L14.2492 13.2898L16.5558 10.8033C16.6147 10.748 16.6573 10.6745 16.6742 10.5893C16.7169 10.3724 16.5757 10.1618 16.3588 10.1191L16.2814 10.5119L16.358 10.1193L13.0029 9.45815ZM12.3963 10.0089L12.7416 9.81686L12.3954 10.0099C12.4581 10.1224 12.5671 10.1929 12.6854 10.2108L15.5011 10.7657L13.5376 12.8822L13.83 13.1543L13.5365 12.882C13.4491 12.9763 13.4158 13.1013 13.435 13.2191L13.7774 16.0691L11.1573 14.8556L11.1576 14.8549C11.0382 14.7996 10.9056 14.8081 10.7982 14.8664L8.20141 16.0691L8.54587 13.202L8.54624 13.2021C8.56199 13.071 8.51253 12.9471 8.42334 12.8629L6.47775 10.7657L9.31043 10.2074L9.23381 9.81493L9.31122 10.2077C9.44272 10.1818 9.5464 10.0942 9.59812 9.98089L10.9894 7.48625L12.3963 10.0089ZM12.7416 9.81686L12.745 9.81493L12.745 9.81493L12.7416 9.81686Z" fill="#009900"/>
<path id="Shape_2" fill-rule="evenodd" clip-rule="evenodd" d="M18.0523 4.63716C16.2448 2.8296 13.7477 1.71163 10.9895 1.71163C8.23135 1.71163 5.73426 2.8296 3.92674 4.63716C2.11919 6.44471 1.00122 8.9418 1.00122 11.6999C1.00122 14.4581 2.11919 16.9552 3.92674 18.7627C5.73427 20.5703 8.23137 21.6883 10.9895 21.6883C13.7477 21.6883 16.2448 20.5703 18.0523 18.7627C19.8599 16.9552 20.9778 14.4581 20.9778 11.6999C20.9778 8.94179 19.8599 6.44469 18.0523 4.63716ZM10.9895 2.5123C13.5267 2.5123 15.8236 3.54064 17.4862 5.20325C19.1488 6.86586 20.1772 9.1628 20.1772 11.6999C20.1772 14.2371 19.1488 16.534 17.4862 18.1966C15.8236 19.8592 13.5267 20.8876 10.9895 20.8876C8.45241 20.8876 6.15544 19.8592 4.49286 18.1966C2.83025 16.534 1.80188 14.2371 1.80188 11.6999C1.80188 9.16281 2.83025 6.86586 4.49286 5.20325C6.15544 3.54064 8.4524 2.5123 10.9895 2.5123Z" fill="#009900"/>
<path id="Shape_3" fill-rule="evenodd" clip-rule="evenodd" d="M21.1312 26.9457L16.792 19.4299L16.792 19.4299C16.7824 19.4091 16.7709 19.3888 16.7574 19.3692C16.6319 19.1873 16.3825 19.1416 16.2005 19.2671L16.4279 19.5966L16.2012 19.2682C15.6625 19.6399 15.0822 19.9556 14.4687 20.2069C13.8764 20.4495 13.2498 20.6322 12.5964 20.7475C12.5457 20.7542 12.4955 20.7707 12.4485 20.7978C12.2571 20.9084 12.1914 21.1532 12.302 21.3447L12.3035 21.3438L16.917 29.3347C16.9869 29.4878 17.1493 29.5859 17.3257 29.5663C17.5454 29.5418 17.7036 29.3438 17.6792 29.1241L17.6784 29.1241L17.2255 25.0633L20.5332 27.4556C20.6583 27.5574 20.8382 27.5772 20.9861 27.4917C21.1776 27.3812 21.2432 27.1364 21.1327 26.9449L21.1312 26.9457ZM16.2943 20.1623L19.5067 25.7264L16.9629 23.8867L16.7283 24.2104L16.9629 23.886C16.7838 23.7564 16.5335 23.7966 16.4039 23.9757C16.3383 24.0665 16.3163 24.1755 16.3338 24.2778L16.6727 27.3172L13.2711 21.4254C13.7863 21.3046 14.2878 21.1433 14.7721 20.9449C15.304 20.7271 15.8129 20.4646 16.2943 20.1623Z" fill="#009900"/>
<path id="Shape_4" fill-rule="evenodd" clip-rule="evenodd" d="M5.18691 19.4299L0.847668 26.9457L0.847675 26.9457L0.846183 26.9449C0.735632 27.1363 0.801239 27.3812 0.992707 27.4917C1.1407 27.5771 1.32057 27.5573 1.44566 27.4555L4.75329 25.0633L4.30042 29.1241L4.29968 29.1241C4.2752 29.3438 4.43346 29.5418 4.65318 29.5663C4.82631 29.5856 4.98595 29.4914 5.05785 29.3431L9.67578 21.3447L9.33019 21.1445L9.67689 21.3447C9.78742 21.1532 9.72182 20.9083 9.53035 20.7978C9.48336 20.7707 9.43313 20.7542 9.38249 20.7475C8.72905 20.6322 8.10242 20.4494 7.51009 20.2068C6.89664 19.9556 6.31636 19.6399 5.7777 19.2682L5.55096 19.5965L5.77834 19.2671C5.59637 19.1415 5.34702 19.1872 5.22146 19.3692C5.20799 19.3887 5.1965 19.409 5.18691 19.4299ZM2.47215 25.7264L5.68456 20.1623L5.68456 20.1623C6.16588 20.4646 6.67485 20.7271 7.20673 20.9449C7.6908 21.1432 8.19206 21.3045 8.70693 21.4252L5.30628 27.3153L5.64502 24.2778C5.66252 24.1755 5.64048 24.0665 5.57485 23.9757C5.4453 23.7966 5.19502 23.7564 5.01586 23.886L5.25047 24.2103L5.0159 23.8866L2.47215 25.7264Z" fill="#009900"/>
<path id="Shape_5" fill-rule="evenodd" clip-rule="evenodd" d="M16.8229 5.86665C15.33 4.37375 13.2676 3.45036 10.9896 3.45036C8.71155 3.45036 6.64914 4.37375 5.15626 5.86665C3.66338 7.35952 2.73999 9.42196 2.73999 11.7C2.73999 13.9781 3.66338 16.0405 5.15626 17.5333C6.64915 19.0262 8.71156 19.9496 10.9896 19.9496C13.2676 19.9496 15.3301 19.0262 16.8229 17.5333C18.3158 16.0404 19.2392 13.9781 19.2392 11.7C19.2392 9.42195 18.3158 7.35951 16.8229 5.86665ZM10.9896 4.25102C13.0466 4.25102 14.9089 5.08476 16.2568 6.43274C17.6048 7.78068 18.4386 9.64298 18.4386 11.7C18.4386 13.757 17.6048 15.6193 16.2568 16.9672C14.9089 18.3152 13.0466 19.1489 10.9896 19.1489C8.93258 19.1489 7.07032 18.3152 5.72236 16.9672C4.3744 15.6193 3.54064 13.757 3.54064 11.7C3.54064 9.64298 4.3744 7.78068 5.72236 6.43274C7.07032 5.08476 8.93258 4.25102 10.9896 4.25102Z" fill="#009900"/>
</g>
</g>
</svg>
