<svg width="26" height="19" viewBox="0 0 26 19" fill="none" xmlns="http://www.w3.org/2000/svg">
<g id="noun_rating_1760639">
<path id="Shape" fill-rule="evenodd" clip-rule="evenodd" d="M24.7276 11.7653C24.7264 12.7493 23.929 13.5467 22.945 13.5479H21.8754V17.4697C21.8754 17.6198 21.7813 17.7538 21.6402 17.8049C21.499 17.856 21.341 17.8132 21.2449 17.6979L17.7865 13.5479H2.26661C1.28258 13.5467 0.485147 12.7493 0.48399 11.7653V1.78262C0.485147 0.798585 1.28258 0.00115715 2.26661 0H22.945C23.929 0.00115715 24.7264 0.798585 24.7276 1.78262V11.7653ZM16.8645 3.39767C16.5514 3.74488 16.4001 4.20855 16.4482 4.67363L16.5307 5.47058C16.6179 6.31239 17.3273 6.95206 18.1736 6.95202C19.0199 6.95198 19.7292 6.31222 19.8163 5.47041L19.8985 4.67363C19.9466 4.20855 19.7953 3.74488 19.4822 3.39767C19.169 3.05046 18.7234 2.85224 18.2559 2.85219H18.0908C17.6233 2.85224 17.1776 3.05046 16.8645 3.39767ZM21.2038 10.0474C21.4007 10.0474 21.5603 9.8878 21.5603 9.6909C21.5587 8.27748 20.4133 7.13207 18.9999 7.13047H17.3468C15.9334 7.13207 14.788 8.27748 14.7864 9.6909C14.7864 9.8878 14.946 10.0474 15.1429 10.0474C15.3398 10.0474 15.4994 9.8878 15.4994 9.6909C15.5006 8.67109 16.327 7.84467 17.3468 7.84352H18.9999C20.0197 7.84467 20.8461 8.67109 20.8473 9.6909C20.8473 9.8878 21.0069 10.0474 21.2038 10.0474ZM17.2403 5.39712C17.2896 5.87547 17.6927 6.23904 18.1736 6.23899C18.6545 6.23895 19.0575 5.87531 19.1068 5.39694L19.1889 4.60034C19.2164 4.33608 19.1305 4.07257 18.9527 3.87523C18.7748 3.67789 18.5215 3.56524 18.2559 3.56524H18.0908C17.8252 3.56523 17.572 3.67786 17.3941 3.87516C17.2162 4.07246 17.1303 4.33593 17.1577 4.60016L17.2403 5.39712ZM4.40575 6.41742H12.2493C12.4462 6.41742 12.6058 6.57705 12.6058 6.77395C12.6058 6.97085 12.4462 7.13047 12.2493 7.13047H4.40575C4.20885 7.13047 4.04923 6.97085 4.04923 6.77395C4.04923 6.57705 4.20885 6.41742 4.40575 6.41742ZM12.2493 4.27828H4.40575C4.20885 4.27828 4.04923 4.4379 4.04923 4.63481C4.04923 4.83171 4.20885 4.99133 4.40575 4.99133H12.2493C12.4462 4.99133 12.6058 4.83171 12.6058 4.63481C12.6058 4.4379 12.4462 4.27828 12.2493 4.27828ZM6.54489 8.55657H12.2493C12.4462 8.55657 12.6058 8.71619 12.6058 8.91309C12.6058 9.10999 12.4462 9.26961 12.2493 9.26961H6.54489C6.34799 9.26961 6.18837 9.10999 6.18837 8.91309C6.18837 8.71619 6.34799 8.55657 6.54489 8.55657ZM22.945 0.713047C23.5354 0.713692 24.0139 1.19218 24.0145 1.78262V11.7653C24.0139 12.3557 23.5354 12.8342 22.945 12.8348H21.5189C21.4243 12.8348 21.3336 12.8724 21.2668 12.9392C21.1999 13.0061 21.1623 13.0968 21.1624 13.1914V16.4849L18.2277 12.9631C18.1599 12.8819 18.0595 12.8349 17.9536 12.8348H2.26661C1.67617 12.8342 1.19768 12.3557 1.19704 11.7653V1.78262C1.19768 1.19218 1.67617 0.713692 2.26661 0.713047H22.945ZM0.784112 16.1319L1.63468 16.0083L2.01523 15.2376C2.08197 15.1245 2.20352 15.0551 2.33485 15.0551C2.46619 15.0551 2.58774 15.1245 2.65448 15.2376L3.03502 16.0083L3.8856 16.1319C4.01993 16.1514 4.13156 16.2455 4.17353 16.3746C4.2155 16.5036 4.18054 16.6454 4.08335 16.7401L3.46744 17.34L3.61297 18.1871C3.63591 18.3209 3.58093 18.4561 3.47113 18.5359C3.36133 18.6157 3.21576 18.6263 3.09559 18.5632L2.33485 18.1631L1.5741 18.5632C1.45397 18.6264 1.30838 18.6159 1.19857 18.5361C1.08875 18.4563 1.03376 18.3211 1.05672 18.1873L1.20191 17.34L0.586352 16.74C0.489268 16.6452 0.454321 16.5036 0.496176 16.3746C0.53821 16.2455 0.649801 16.1515 0.784112 16.1319ZM1.83383 16.9603L1.60126 16.7337L1.92261 16.687C2.03879 16.6702 2.13921 16.5972 2.19105 16.4919L2.33484 16.2008L2.47864 16.4919C2.53048 16.5972 2.6309 16.6702 2.74707 16.687L3.06808 16.7337L2.83551 16.9602C2.75156 17.0422 2.7133 17.1603 2.73315 17.276L2.78816 17.5958L2.50092 17.4446C2.39695 17.39 2.27274 17.39 2.16877 17.4446L1.88153 17.5959L1.9362 17.2758C1.95605 17.1602 1.91777 17.0423 1.83383 16.9603ZM6.34015 17.34L5.72459 16.74C5.62744 16.6452 5.5925 16.5035 5.63447 16.3745C5.67644 16.2454 5.78805 16.1514 5.92235 16.1319L6.77293 16.0083L7.15313 15.2376C7.21981 15.1244 7.34138 15.0549 7.47275 15.0549C7.60412 15.0549 7.72569 15.1244 7.79237 15.2376L8.17292 16.0083L9.02349 16.1319C9.1578 16.1514 9.2694 16.2454 9.31138 16.3745C9.35335 16.5035 9.31841 16.6452 9.22125 16.74L8.60569 17.34L8.75087 18.1873C8.77384 18.3211 8.71885 18.4563 8.60903 18.5361C8.49922 18.6158 8.35363 18.6263 8.2335 18.5631L7.47275 18.1631L6.71236 18.5631C6.59223 18.6263 6.44664 18.6158 6.33682 18.5361C6.22701 18.4563 6.17201 18.3211 6.19498 18.1873L6.34015 17.34ZM6.97207 16.9603L6.7395 16.7337L7.06086 16.687C7.17703 16.6702 7.27745 16.5972 7.32929 16.4919L7.47274 16.201L7.61653 16.4919C7.66837 16.5972 7.76879 16.6702 7.88497 16.687L8.20633 16.7337L7.97375 16.9603C7.88982 17.0423 7.85154 17.1602 7.87139 17.2758L7.92605 17.5959L7.63882 17.4446C7.53482 17.3901 7.41066 17.3901 7.30666 17.4446L7.01977 17.5958L7.07444 17.2758C7.09429 17.1602 7.05601 17.0423 6.97207 16.9603ZM13.7436 17.34L13.8891 18.1871C13.912 18.3209 13.8571 18.4561 13.7473 18.5359C13.6375 18.6157 13.4919 18.6263 13.3717 18.5631L12.611 18.1631L11.8502 18.5631C11.7301 18.6264 11.5844 18.6159 11.4746 18.536C11.3648 18.4562 11.3098 18.3209 11.3329 18.1871L11.4784 17.34L10.8625 16.7401C10.7653 16.6454 10.7304 16.5036 10.7723 16.3746C10.8143 16.2455 10.9259 16.1514 11.0603 16.1319L11.9108 16.0083L12.2914 15.2376C12.3581 15.1245 12.4797 15.0551 12.611 15.0551C12.7424 15.0551 12.8639 15.1245 12.9306 15.2376L13.3112 16.0083L14.1618 16.1319C14.2961 16.1514 14.4077 16.2455 14.4497 16.3746C14.4917 16.5036 14.4567 16.6454 14.3595 16.7401L13.7436 17.34ZM13.0232 16.687L13.3442 16.7337L13.1117 16.9602C13.0277 17.0422 12.9895 17.1603 13.0093 17.2759L13.0643 17.5957L12.7771 17.4446C12.6731 17.3901 12.5489 17.3901 12.4449 17.4446L12.1577 17.5957L12.2127 17.2759C12.2326 17.1603 12.1943 17.0422 12.1103 16.9602L11.8778 16.7337L12.1988 16.687C12.315 16.6702 12.4154 16.5972 12.4672 16.4919L12.611 16.2008L12.7548 16.4919C12.8067 16.5972 12.9071 16.6702 13.0232 16.687Z" fill="#009900"/>
</g>
</svg>
