<svg width="25" height="26" viewBox="0 0 25 26" fill="none" xmlns="http://www.w3.org/2000/svg">
<g id="noun_User Time_1497820">
<path id="Path" fill-rule="evenodd" clip-rule="evenodd" d="M15.1088 20.736L10.9632 19.8368V17.8736C11.3328 17.5104 11.816 16.2 12.1536 15.8704C12.632 15.4032 13.1504 14.8288 13.2976 14.1104C13.4944 13.1568 13.0944 13.0352 13.0944 12.7056C13.0944 12.0144 13.088 10.88 12.872 10.144C12.8608 9.1712 12.7008 8.7488 12.3664 8.3856C12.0512 8.0448 11.2768 8.1248 10.872 7.9008C10.2448 7.5536 9.6576 7.4176 9 7.4C7.4 7.4608 5.6176 8.4752 5.032 10.0992C4.8144 10.7008 4.8976 12.0144 4.8976 12.7056C4.8976 13.0352 4.4976 13.1568 4.6944 14.1104C4.8416 14.8288 5.36 15.4032 5.8384 15.8704C6.176 16.2 6.6688 17.5104 7.0368 17.872V19.8352L2.8912 20.7344C1.7872 20.9744 1 21.952 1 23.08V25H17V23.08C17 21.952 16.2128 20.9744 15.1088 20.736Z" stroke="#009900" stroke-linecap="round" stroke-linejoin="round"/>
<path id="Path_2" d="M16.5521 13.672C16.9521 13.752 17.3681 13.8 17.8001 13.8C21.3361 13.8 24.2001 10.936 24.2001 7.4C24.2001 3.864 21.3361 1 17.8001 1C15.1761 1 12.9201 2.584 11.9441 4.856" stroke="#009900" stroke-linecap="round" stroke-linejoin="round"/>
<path id="Path_3" d="M17.8 4.2V7.4L20.2 9.8" stroke="#009900" stroke-linecap="round" stroke-linejoin="round"/>
</g>
</svg>
