<svg width="6" height="8" viewBox="0 0 6 8" fill="none" xmlns="http://www.w3.org/2000/svg">
	<path fill-rule="evenodd" clip-rule="evenodd" d="M2.22291 6.75069C2.25341 6.70879 2.28652 6.66872 2.32206 6.63071L2.32685 6.62608C2.65084 6.315 3.174 6.31707 3.49535 6.63071C3.65002 6.78166 3.73624 6.986 3.73497 7.1986C3.73892 7.30207 3.72208 7.40529 3.68539 7.50254C3.61027 7.70349 3.44679 7.86174 3.23921 7.93446C3.03922 8.02003 2.81124 8.02003 2.61125 7.93446C2.40367 7.86174 2.24019 7.70349 2.16507 7.50254C2.11881 7.40762 2.09617 7.30352 2.09897 7.1986C2.09491 7.14535 2.09491 7.09188 2.09897 7.03863C2.10801 6.98853 2.12472 6.94 2.14854 6.89466C2.16663 6.84369 2.19163 6.79528 2.22291 6.75069ZM0.760419 1.19977C1.20349 0.456872 2.02255 -0.000549536 2.9087 4.95485e-07C3.94461 0.00778295 4.86627 0.638332 5.21961 1.58101C5.68656 2.82676 5.02186 4.20307 3.73497 4.6551V4.79907C3.73497 5.24081 3.36504 5.59891 2.9087 5.59891C2.45237 5.59891 2.08244 5.24081 2.08244 4.79907V3.99922C2.08244 3.55748 2.45237 3.19938 2.9087 3.19938C3.36504 3.19938 3.73497 2.84128 3.73497 2.39953C3.73497 1.95779 3.36504 1.59969 2.9087 1.59969C2.61233 1.59855 2.33804 1.75115 2.18985 1.99961C2.17909 2.01953 2.16747 2.03899 2.15501 2.05796C1.9102 2.43075 1.39955 2.54085 1.01445 2.30387C0.629339 2.06688 0.515608 1.57256 0.760419 1.19977Z" fill="#FFF" />
</svg>
