<svg xmlns="http://www.w3.org/2000/svg" width="262" height="111" fill="#04c40b" opacity=".2"><path d="M1.697 57.288c7.62 8.53 16.118 16.246 25.463 22.7 9.326 6.457 19.476 11.62 30.1 15.17 10.653 3.55 21.77 5.453 32.907 5.8s22.303-.825 33.148-3.268 21.39-6.144 31.463-10.836c10.075-4.673 19.673-10.357 28.716-16.76 9.04-6.44 17.54-13.623 25.406-21.404l1.48-1.466 1.458-1.483c.973-.976 1.924-1.987 2.875-2.998l1.416-1.515 1.396-1.53 1.376-1.548c.463-.523.93-1.027 1.373-1.566 3.636-4.173 7.108-8.477 10.434-12.894 3.245-4.314 9.39-5.2 13.737-1.963 4.326 3.23 5.22 9.357 1.96 13.692-.112.163-.245.3-.376.475l-.016.02c-3.894 4.54-7.953 8.95-12.162 13.21l-1.595 1.592-1.598 1.574-1.618 1.558-1.62 1.54-3.303 3.03-1.662 1.507-1.684 1.472c-9.04 7.863-18.67 15.01-28.836 21.304-10.185 6.277-20.882 11.717-32.03 16.05s-22.722 7.592-34.537 9.46c-11.796 1.864-23.828 2.37-35.717 1.233-.74-.062-1.484-.162-2.225-.242l-2.21-.263-2.214-.3-2.2-.357c-2.93-.495-5.855-1.085-8.737-1.792s-5.753-1.5-8.584-2.41-5.616-1.918-8.358-3.034c-10.968-4.466-21.188-10.537-30.365-17.797C15.534 75.993 7.403 67.58.26 58.468c-.312-.412-.248-.98.164-1.31.397-.3.948-.243 1.273.13z"/><path d="M261.72.704c-5.898 17.747-10.86 41.653-10.136 59.515l-16.296-26.63-29.634-10.042c17.65-3.174 39.986-13.23 56.066-22.843z"/></svg>
