<svg xmlns="http://www.w3.org/2000/svg" width="64" height="64" fill="none"><path d="M51.34 47.937a5.66 5.66 0 0 1-2.263 1.15c-.592.157-1.392.283-2.4.376s-2.203.133-3.585.118l-2.94-.022c-2.48-.014-12.28-.38-14.275-1.095h-6.63v-21.34h6.63c.606-1.18 1.368-2.395 2.284-3.64l3.5-4.63c1.248-1.625 2.492-3.36 3.733-5.2s2.383-3.823 3.426-5.928c.423-.816.86-1.47 1.3-1.965s1.057-.74 1.82-.74c.832 0 1.533.283 2.104.848s.856 1.35.856 2.352c0 .96-.183 2-.55 3.093s-.786 2.205-1.258 3.308a61.65 61.65 0 0 0-1.248 3.136c-.36.988-.54 1.854-.54 2.6 0 .788.293 1.418.878 1.9s1.357.7 2.316.7h7.55c1.043 0 1.92.372 2.633 1.117s1.068 1.64 1.068 2.685c0 1.303-.352 2.234-1.057 2.792-.352.286-.395.558-.127.816.296.272.522.652.677 1.138a4.85 4.85 0 0 1 .233 1.482c0 .716-.148 1.364-.444 1.944s-.684 1.006-1.163 1.278c-.38.215-.444.487-.2.816.494.644.74 1.468.74 2.47 0 .874-.243 1.607-.73 2.202s-1.06 1.042-1.724 1.342c-.24.115-.275.315-.106.6a4.21 4.21 0 0 1 .36.827c.1.308.148.67.148 1.085 0 1.03-.345 1.83-1.036 2.395zm-34.275.593l-8.9.97V26l8.883.72.007 21.8z" fill="#457edb"/><path d="M12.316 46.27c.957.467 2.1.064 2.552-.9s.044-2.123-.913-2.6-2.1-.064-2.552.9-.044 2.123.913 2.6z" fill="#fff"/></svg>
