<svg width="48" height="44" viewBox="0 0 48 44" fill="none" xmlns="http://www.w3.org/2000/svg">
	<path d="M46.8387 8.89082C46.0939 7.15099 45.0201 5.57437 43.6772 4.24923C42.3334 2.92013 40.7489 1.86391 39.01 1.13801C37.2069 0.382315 35.273 -0.00449464 33.3205 3.94023e-05C30.5813 3.94023e-05 27.9088 0.756821 25.5863 2.1863C25.0306 2.52825 24.5028 2.90384 24.0027 3.31306C23.5027 2.90384 22.9749 2.52825 22.4192 2.1863C20.0967 0.756821 17.4242 3.94023e-05 14.685 3.94023e-05C12.7126 3.94023e-05 10.8012 0.381233 8.99547 1.13801C7.25083 1.86677 5.67843 2.91505 4.32827 4.24923C2.98366 5.57288 1.90954 7.14987 1.1668 8.89082C0.39449 10.7015 0 12.6243 0 14.6031C0 16.4698 0.377821 18.415 1.12791 20.3939C1.75576 22.0476 2.65586 23.763 3.80599 25.4952C5.62842 28.2364 8.13426 31.0953 11.2457 33.9935C16.4019 38.7977 21.508 42.1163 21.7247 42.2509L23.0415 43.1029C23.6249 43.4785 24.375 43.4785 24.9584 43.1029L26.2752 42.2509C26.4919 42.1107 31.5925 38.7977 36.7542 33.9935C39.8657 31.0953 42.3715 28.2364 44.194 25.4952C45.3441 23.763 46.2497 22.0476 46.872 20.3939C47.6221 18.415 47.9999 16.4698 47.9999 14.6031C48.0055 12.6243 47.611 10.7015 46.8387 8.89082Z" fill="#EB5757"/>
</svg>
