<svg width="88" height="88" fill="none" xmlns="http://www.w3.org/2000/svg"><g clip-path="url(#clip0)"><path d="M54.829 12.756a1.094 1.094 0 00-1.563.344c-.007.013-.016.025-.024.036-.348.49-1.035.61-1.532.267a1.093 1.093 0 00-1.51.262l-1.579 2.227a1.06 1.06 0 00.266 1.489 1.09 1.09 0 001.51-.262l1.064-1.5a3.32 3.32 0 002.904-.573l1.598 1.104a1.094 1.094 0 001.51-.262 1.06 1.06 0 00-.266-1.49l-2.378-1.642zm11.987 13.47l-1.064 1.499a1.06 1.06 0 00.266 1.49 1.095 1.095 0 001.51-.264l1.58-2.225a1.06 1.06 0 00-.266-1.49 1.077 1.077 0 01-.27-1.51.227.227 0 01.026-.035 1.06 1.06 0 00-.206-1.567l-2.378-1.642a1.093 1.093 0 00-1.51.263 1.06 1.06 0 00.266 1.49l1.599 1.103a3.201 3.201 0 00.447 2.888z" fill="#333"/><path d="M61.064 50.25c.515 0 .993.203 1.346.573a1.095 1.095 0 001.533.042 1.059 1.059 0 00.044-1.511 4.063 4.063 0 00-2.923-1.243c-2.217 0-4.02 1.779-4.02 3.965s1.803 3.965 4.02 3.965a4.019 4.019 0 002.842-1.161 1.059 1.059 0 000-1.512 1.094 1.094 0 00-1.533 0c-.35.345-.815.535-1.31.535-1.02 0-1.85-.82-1.85-1.827 0-1.007.83-1.827 1.85-1.827z" fill="#457EDB"/><path d="M70.715 44.544v-8.565c0-2.908-2.398-5.274-5.346-5.274h-5.752c.336-2.867-.613-5.389-2.615-6.772-1.696-1.17-3.893-1.38-6.188-.591-2.168.747-4.185 2.316-5.678 4.42a12.772 12.772 0 00-1.569 2.943H36.51l15.169-21.37 21.049 14.539-3.207 4.518a1.06 1.06 0 00.266 1.49c.49.338 1.166.22 1.51-.263l3.496-4.925a1.628 1.628 0 00-.408-2.286L52.51 7.298a1.67 1.67 0 00-1.243-.273 1.658 1.658 0 00-1.074.675l-5.017 7.069v-4.263c0-.905-.747-1.641-1.664-1.641h-26c-.918 0-1.664.736-1.664 1.641v5.854c0 .591.486 1.07 1.084 1.07.599 0 1.084-.479 1.084-1.07v-5.356h3.14v19.7h-2.884c-.085 0-.17.003-.256.007V20.637c0-.59-.485-1.069-1.084-1.069-.598 0-1.084.48-1.084 1.07v10.641c-1.733.873-2.922 2.652-2.922 4.7v32.194c0 2.908 2.398 5.274 5.346 5.274h8.094c.599 0 1.084-.478 1.084-1.07 0-.59-.485-1.069-1.084-1.069h-8.094c-1.753 0-3.178-1.406-3.178-3.135V35.98c0-1.37.895-2.537 2.138-2.963a3.204 3.204 0 011.04-.173H65.37c1.753 0 3.179 1.407 3.179 3.136v8.417h-7.76c-4.294 0-7.787 3.445-7.787 7.68 0 4.236 3.493 7.68 7.786 7.68h7.76v8.417c0 1.73-1.425 3.135-3.178 3.135h-8.283c-.599 0-1.084.48-1.084 1.07 0 .59.485 1.069 1.084 1.069h8.283c2.948 0 5.347-2.366 5.347-5.274V59.61c2.452-.575 4.282-2.753 4.282-5.345V49.89c0-2.592-1.83-4.771-4.283-5.345zM46.911 28.989c2.473-3.483 6.442-4.965 8.848-3.303 1.386.957 1.996 2.836 1.672 5.019H45.91c.275-.59.61-1.165 1.002-1.716zm-3.904-11.166l-9.143 12.882h-5.342V11.003h14.486v6.82zm-19.682-6.82h3.03v19.702h-3.03V11.003zm49.504 43.26c0 1.85-1.525 3.355-3.4 3.355h-8.642c-3.098 0-5.618-2.486-5.618-5.542 0-3.056 2.52-5.542 5.618-5.542h8.642c1.875 0 3.4 1.505 3.4 3.355v4.374z" fill="#333"/><path d="M41.82 54.162c-7.22 0-13.096 5.795-13.096 12.92C28.724 74.203 34.6 80 41.82 80c7.222 0 13.097-5.796 13.097-12.919 0-7.124-5.875-12.92-13.097-12.92zm0 23.7c-6.026 0-10.928-4.837-10.928-10.78 0-5.946 4.902-10.782 10.928-10.782 6.026 0 10.929 4.836 10.929 10.781 0 5.944-4.903 10.78-10.929 10.78z" fill="#333"/><path d="M45.995 69.915c0 .841-.315 1.537-.946 2.087-.63.545-1.512.888-2.644 1.03v2.153h-1.197v-2.07c-.692 0-1.364-.052-2.013-.157-.65-.111-1.181-.263-1.596-.455v-1.447a9.337 9.337 0 001.772.566 8.973 8.973 0 001.837.213v-4.082c-1.268-.402-2.158-.869-2.672-1.4-.507-.532-.76-1.219-.76-2.06 0-.81.312-1.475.937-1.995.63-.52 1.462-.835 2.495-.946v-1.688h1.197v1.67c1.138.03 2.236.26 3.293.686l-.482 1.215a9.421 9.421 0 00-2.811-.65v4.027c.971.31 1.698.613 2.18.91.483.29.838.627 1.067 1.01.229.378.343.839.343 1.383zm-1.577.12c0-.445-.139-.803-.417-1.075-.273-.279-.804-.554-1.596-.826v3.609c1.342-.186 2.013-.755 2.013-1.707zm-5.075-5.76c0 .47.14.847.418 1.131.278.285.76.554 1.447.807v-3.59c-.612.099-1.076.294-1.391.585-.316.284-.474.64-.474 1.066z" fill="#457EDB"/></g><defs><clipPath id="clip0"><path fill="#fff" transform="translate(7 7)" d="M0 0h74v73H0z"/></clipPath></defs></svg>