<svg width="88" height="88" viewBox="0 0 88 88" fill="none" xmlns="http://www.w3.org/2000/svg">
	<g clip-path="url(#clip0)">
		<path d="M71.0103 60.9021C69.4457 59.4911 68.5483 57.4906 68.5483 55.4135V41.2187C68.5483 40.4314 67.9012 39.7929 67.103 39.7929C66.3047 39.7929 65.6577 40.4314 65.6577 41.2187V55.4135C65.6577 58.2893 66.8978 61.0569 69.06 63.0068C69.8371 63.7076 70.2827 64.7046 70.2827 65.7426C70.2827 67.7865 68.597 69.4493 66.5252 69.4493H21.4309C19.359 69.4493 17.6733 67.7865 17.6733 65.7426C17.6733 64.7048 18.1189 63.7077 18.8961 63.0068C21.0583 61.0569 22.2984 58.2893 22.2984 55.4135V38.9374C22.2984 27.1448 32.0239 17.5507 43.9781 17.5507C47.2659 17.5507 50.5043 18.2882 53.4371 19.691C52.4177 21.3065 51.8266 23.211 51.8266 25.2499C51.8266 31.0677 56.6245 35.8007 62.5219 35.8007C68.4194 35.8007 73.2173 31.0677 73.2173 25.2499C73.2173 19.4321 68.4194 14.6991 62.5219 14.6991C59.758 14.6991 57.2355 15.7388 55.3354 17.4424C53.181 16.3339 50.8698 15.55 48.4831 15.1121C49.0156 14.2923 49.3258 13.3191 49.3258 12.2753C49.3258 9.36652 46.9268 7 43.9781 7C41.0294 7 38.6304 9.36652 38.6304 12.2753C38.6304 13.3179 38.9399 14.29 39.4712 15.1094C28.0682 17.2032 19.4077 27.0907 19.4077 38.9374V55.4135C19.4077 57.4906 18.5105 59.4911 16.9458 60.9021C15.5711 62.1416 14.7827 63.9059 14.7827 65.7424C14.7827 69.3587 17.7651 72.3008 21.4309 72.3008H34.8417C35.5377 76.6574 39.3693 80 43.9781 80C48.5869 80 52.4184 76.6574 53.1145 72.3008H66.5253C70.1911 72.3008 73.1735 69.3587 73.1735 65.7424C73.1735 63.9059 72.385 62.1416 71.0103 60.9021ZM62.5218 17.5507C66.8253 17.5507 70.3265 21.0046 70.3265 25.2499C70.3265 29.4952 66.8253 32.9491 62.5218 32.9491C58.2182 32.9491 54.7171 29.4952 54.7171 25.2499C54.7171 21.0046 58.2182 17.5507 62.5218 17.5507ZM43.9781 9.85143C45.3329 9.85143 46.4351 10.9387 46.4351 12.2751C46.4351 13.6116 45.3329 14.6989 43.9781 14.6989C42.6233 14.6989 41.5211 13.6116 41.5211 12.2751C41.5211 10.9387 42.6233 9.85143 43.9781 9.85143ZM43.9781 77.1484C40.9688 77.1484 38.4428 75.0751 37.7864 72.3008H50.1698C49.5134 75.0751 46.9874 77.1484 43.9781 77.1484Z" fill="#333333"/>
		<path d="M27.7905 37.4819C26.9923 37.4819 26.3452 38.1204 26.3452 38.9077V38.9374C26.3452 39.7247 26.9923 40.3632 27.7905 40.3632C28.5888 40.3632 29.2358 39.7247 29.2358 38.9374V38.9077C29.2358 38.1204 28.5888 37.4819 27.7905 37.4819Z" fill="#457EDB"/>
		<path d="M43.9783 21.5428C36.886 21.5428 30.5123 25.7044 27.7408 32.1453C27.4289 32.87 27.7717 33.7071 28.5063 34.0148C28.6906 34.0919 28.8821 34.1285 29.0704 34.1285C29.633 34.1285 30.1679 33.8025 30.4016 33.2595C32.719 27.8742 38.0482 24.3944 43.9783 24.3944C44.7765 24.3944 45.4236 23.756 45.4236 22.9686C45.4236 22.1813 44.7765 21.5428 43.9783 21.5428Z" fill="#457EDB"/>
		<path d="M63.0311 20.6296C62.4913 20.4094 61.8695 20.5309 61.456 20.9387L59.7939 22.5783C59.2295 23.1351 59.2295 24.0379 59.7939 24.5948C60.1312 24.9274 60.5942 25.0618 61.0327 24.9963V27.5787C61.0327 28.366 61.6797 29.0045 62.478 29.0045C63.2762 29.0045 63.9233 28.366 63.9233 27.5787V21.9468C63.9233 21.3701 63.5711 20.8503 63.0311 20.6296Z" fill="#457EDB"/>
	</g>
	<defs>
		<clipPath id="clip0">
			<rect width="74" height="73" fill="white" transform="translate(7 7)"/>
		</clipPath>
	</defs>
</svg>
