<svg width="88" height="88" viewBox="0 0 88 88" fill="none" xmlns="http://www.w3.org/2000/svg">
	<path d="M76.0859 35.5156H63.6562V31.0244C63.6562 28.9411 61.9381 27.2461 59.8262 27.2461H57.887V20.9727H57.8835C57.8834 20.6017 57.74 20.2371 57.4637 19.9645L44.7449 7.41761C44.4835 7.15954 44.1221 7 43.7229 7H8.44531C7.64707 7 7 7.63846 7 8.42578V70.875C7 71.6623 7.64707 72.3008 8.44531 72.3008H21.4531V75.1523C21.4531 77.8254 23.6575 80 26.3672 80H44.7227C45.5209 80 46.168 79.3615 46.168 78.5742C46.168 77.7869 45.5209 77.1484 44.7227 77.1484H26.3672C25.2514 77.1484 24.3438 76.253 24.3438 75.1523V54.2394L45.1562 60.2103V61.6074C45.1562 64.9094 47.8794 67.5957 51.2266 67.5957C54.5738 67.5957 57.2969 64.9094 57.2969 61.6074V60.2103L78.1094 54.2394V75.1523C78.1094 76.253 77.2017 77.1484 76.0859 77.1484H57.7305C56.9322 77.1484 56.2852 77.7869 56.2852 78.5742C56.2852 79.3615 56.9322 80 57.7305 80H76.0859C78.7956 80 81 77.8254 81 75.1523V40.3633C81 37.6902 78.7956 35.5156 76.0859 35.5156ZM60.7656 31.0244V35.5156H41.6875V31.0244C41.6875 30.5134 42.109 30.0977 42.627 30.0977H59.8262C60.3442 30.0977 60.7656 30.5134 60.7656 31.0244ZM45.1682 11.868L52.9524 19.5469H45.1682V11.868ZM9.89062 69.4492V9.85156H42.2776V20.9727C42.2776 21.76 42.9247 22.3984 43.7229 22.3984H54.9964V27.2461H42.627C40.5151 27.2461 38.7969 28.9411 38.7969 31.0244V35.5156H26.3672C23.6575 35.5156 21.4531 37.6902 21.4531 40.3633V69.4492H9.89062ZM51.2266 64.7441C49.4733 64.7441 48.0469 63.337 48.0469 61.6074V57.3301H54.4062V61.6074C54.4062 63.337 52.9799 64.7441 51.2266 64.7441ZM55.8516 54.4785H46.6016C45.8033 54.4785 45.1562 55.117 45.1562 55.9043V57.2404L24.3438 51.2696V40.3633C24.3438 39.2626 25.2514 38.3672 26.3672 38.3672H76.0859C77.2017 38.3672 78.1094 39.2626 78.1094 40.3633V51.2696L57.2969 57.2404V55.9043C57.2969 55.117 56.6498 54.4785 55.8516 54.4785Z" fill="#333333"/>
	<path d="M34.461 28.957C34.461 28.1697 33.814 27.5312 33.0157 27.5312H15.4656C14.6673 27.5312 14.0203 28.1697 14.0203 28.957C14.0203 29.7443 14.6673 30.3828 15.4656 30.3828H33.0157C33.814 30.3828 34.461 29.7443 34.461 28.957Z" fill="#457EDB"/>
	<path d="M15.4656 22.3984H33.0157C33.814 22.3984 34.461 21.76 34.461 20.9727C34.461 20.1853 33.814 19.5469 33.0157 19.5469H15.4656C14.6673 19.5469 14.0203 20.1853 14.0203 20.9727C14.0203 21.76 14.6673 22.3984 15.4656 22.3984Z" fill="#457EDB"/>
	<path d="M51.2266 77.1484C50.8464 77.1484 50.4736 77.3009 50.2047 77.5662C49.9359 77.8314 49.7812 78.1992 49.7812 78.5742C49.7812 78.9492 49.9359 79.3171 50.2047 79.5821C50.4736 79.8473 50.8464 80 51.2266 80C51.6067 80 51.9796 79.8474 52.2484 79.5821C52.5172 79.3171 52.6719 78.9492 52.6719 78.5742C52.6719 78.1992 52.5172 77.8314 52.2484 77.5662C51.9796 77.301 51.6067 77.1484 51.2266 77.1484Z" fill="#333333"/>
</svg>
