<svg xmlns="http://www.w3.org/2000/svg" width="24" height="24" viewBox="0 0 24 24" fill="none">
<path d="M12 2.25c5.376 0 9.75 4.374 9.75 9.75s-4.374 9.75-9.75 9.75S2.25 17.404 2.25 12 6.623 2.25 12 2.25z" stroke="#fff" stroke-width="1.5"/>
<path d="M10.982 15.946a1.92 1.92 0 0 0-.149.18.9.9 0 0 0-.112.216.75.75 0 0 0-.074.216 1.6 1.6 0 0 0 0 .24.98.98 0 0 0 .099.456 1.1 1.1 0 0 0 .669.648 1.2 1.2 0 0 0 .942 0 1.1 1.1 0 0 0 .669-.648 1.16 1.16 0 0 0 .074-.456 1.18 1.18 0 0 0-.359-.852 1.27 1.27 0 0 0-1.753-.007l-.007.007zM11.862 6c-1.33 0-2.557.685-3.222 1.8-.367.56-.197 1.3.38 1.656s1.344.2 1.7-.37L10.784 9c.222-.373.634-.602 1.078-.6.684 0 1.24.537 1.24 1.2s-.555 1.2-1.24 1.2-1.24.537-1.24 1.2v1.2c0 .663.555 1.2 1.24 1.2s1.24-.537 1.24-1.2v-.216c1.93-.678 2.927-2.742 2.227-4.6-.53-1.414-1.912-2.36-3.466-2.372z" fill="#fff"/>
</svg>
