<svg width="36" height="40" fill="none" xmlns="http://www.w3.org/2000/svg"><path d="M34.834 13.637c-.25.18-4.673 2.489-4.673 7.621 0 5.937 5.627 8.037 5.795 8.089-.025.128-.893 2.876-2.966 5.676-1.849 2.465-3.779 4.925-6.715 4.925-2.937 0-3.693-1.58-7.083-1.58-3.303 0-4.478 1.632-7.164 1.632s-4.56-2.28-6.715-5.08C2.817 31.63.8 26.523.8 21.673c0-7.777 5.459-11.901 10.83-11.901 2.855 0 5.235 1.736 7.027 1.736 1.706 0 4.366-1.84 7.613-1.84 1.231 0 5.653.104 8.564 3.968Zm-10.105-7.26C26.072 4.9 27.022 2.852 27.022.804c0-.284-.026-.572-.082-.804-2.186.076-4.785 1.348-6.353 3.032-1.23 1.296-2.38 3.345-2.38 5.42 0 .313.057.625.083.725.138.024.363.052.587.052 1.96 0 4.427-1.216 5.852-2.852Z" fill="#BBB"/></svg>