<svg width="39" height="48" fill="none" xmlns="http://www.w3.org/2000/svg"><path fill-rule="evenodd" clip-rule="evenodd" d="M21.626 15.751c-.953-2.136-2.125-3.767-2.587-4.426-.465.66-1.634 2.29-2.587 4.426.934.952 1.853 2.073 2.587 3.345.731-1.272 1.655-2.393 2.587-3.345ZM16.452 43.575c.952 2.135 2.122 3.766 2.587 4.425.462-.659 1.634-2.289 2.587-4.425-.932-.955-1.856-2.076-2.587-3.347-.734 1.271-1.653 2.392-2.587 3.347ZM16.452 15.751c-1.663-1.7-3.352-2.852-4.024-3.32-.2.769-.711 2.682-.834 4.999 1.217.592 2.49 1.348 3.635 2.303.23-1.433.692-2.786 1.223-3.982ZM21.626 43.575c1.66 1.699 3.352 2.849 4.025 3.319.197-.77.71-2.683.833-4.997-1.217-.592-2.49-1.35-3.637-2.306-.229 1.433-.691 2.786-1.221 3.984ZM11.593 17.43c-2.176-1.057-4.179-1.592-4.98-1.816.09.79.298 2.752 1.018 4.97 1.357.158 2.824.457 4.247.985-.302-1.42-.355-2.844-.285-4.14Z" fill="#CFCFCF"/><path fill-rule="evenodd" clip-rule="evenodd" d="M26.481 41.897c2.175 1.056 4.177 1.59 4.98 1.812-.089-.787-.3-2.75-1.019-4.967-1.357-.16-2.824-.46-4.248-.988.302 1.424.357 2.845.287 4.143ZM9.392 24.38c-.793-1.238-1.358-2.558-1.761-3.797-2.427-.288-4.5-.141-5.334-.09.369.71 1.273 2.487 2.745 4.338 1.336-.29 2.823-.485 4.35-.45ZM28.682 34.945c.797 1.238 1.362 2.559 1.763 3.797 2.427.288 4.5.14 5.335.092-.37-.715-1.271-2.492-2.747-4.343-1.334.291-2.82.488-4.35.454ZM5.042 24.831C2.66 25.347.765 26.158 0 26.477c.604.547 2.093 1.925 4.146 3.185 1.148-.703 2.474-1.372 3.922-1.834-1.193-.908-2.198-1.963-3.026-2.997ZM33.927 29.662c-1.147.705-2.473 1.372-3.92 1.835 1.191.906 2.2 1.96 3.025 2.994 2.384-.515 4.28-1.325 5.043-1.645-.604-.546-2.093-1.926-4.148-3.184ZM8.068 31.497c-1.448-.463-2.775-1.13-3.922-1.835C2.093 30.92.604 32.3 0 32.847c.765.319 2.66 1.129 5.042 1.645.828-1.033 1.833-2.089 3.026-2.994Z" fill="#CFCFCF"/><path fill-rule="evenodd" clip-rule="evenodd" d="M30.006 27.828c1.448.462 2.774 1.131 3.921 1.834 2.055-1.26 3.544-2.638 4.148-3.184-.763-.32-2.659-1.13-5.043-1.647-.826 1.034-1.834 2.09-3.026 2.997ZM5.042 34.492c-1.472 1.85-2.376 3.628-2.745 4.342.835.048 2.907.196 5.334-.092.403-1.238.968-2.559 1.761-3.797-1.527.034-3.014-.163-4.35-.453ZM33.033 24.831c1.476-1.85 2.377-3.627 2.747-4.34-.835-.049-2.908-.197-5.335.092-.4 1.239-.966 2.559-1.763 3.797 1.531-.034 3.017.161 4.35.451ZM11.878 37.754c-1.423.529-2.89.827-4.247.988-.72 2.217-.928 4.18-1.018 4.967.801-.222 2.804-.756 4.98-1.812-.07-1.298-.017-2.719.285-4.143ZM26.194 21.569c1.424-.529 2.891-.827 4.248-.986.72-2.216.93-4.18 1.018-4.969-.802.221-2.804.757-4.979 1.814.07 1.297.015 2.717-.287 4.14ZM11.594 41.897c.123 2.314.634 4.227.834 4.997.672-.47 2.36-1.62 4.024-3.32-.532-1.197-.992-2.55-1.223-3.983-1.146.956-2.418 1.714-3.635 2.306Z" fill="#CFCFCF"/><path fill-rule="evenodd" clip-rule="evenodd" d="M26.484 17.428c-.123-2.316-.636-4.228-.833-4.997-.672.468-2.365 1.62-4.025 3.32.53 1.194.992 2.55 1.221 3.982 1.148-.956 2.42-1.713 3.637-2.305Z" fill="#CFCFCF"/><path d="M25.553 0h-1.266v7.714l-.027 1.15h1.224l.028-.97c.136.19.283.408.661.65.58.371 1.184.41 1.508.41.929 0 1.83-.37 2.37-1.1.338-.42.646-1.098.646-2.338 0-1.404-.457-2.042-.794-2.413-.619-.665-1.468-.818-2.142-.818-1.535 0-2.034.805-2.208 1.099V0Zm3.811 5.594c0 1.047-.39 2.491-1.953 2.491-1.885 0-1.885-2.006-1.885-2.427 0-.41 0-2.555 1.94-2.555 1.764 0 1.898 1.852 1.898 2.491ZM31.667 11.329h1.253v-3.18c.363.562 1.089.958 2.072.958 1.617 0 3.084-1.047 3.084-3.436 0-2.377-1.386-3.322-2.84-3.322-.551 0-1.671.154-2.303 1.162l-.027-1.06h-1.28c.027.613.041.767.041 1.048v7.83Zm1.212-5.48c0-.575 0-2.606 2.02-2.606 1.493 0 1.858 1.201 1.858 2.351 0 .46-.067 1.38-.552 2.005-.431.563-1.105.627-1.427.627-1.777 0-1.9-1.597-1.9-2.376Z" fill="#BBB"/><path fill-rule="evenodd" clip-rule="evenodd" d="M17.715 22.534c.244-1.24.72-2.39 1.325-3.438-.733-1.272-1.653-2.393-2.587-3.345-.531 1.196-.992 2.55-1.222 3.982.946.79 1.81 1.716 2.484 2.801ZM20.364 36.79c-.246 1.24-.72 2.39-1.326 3.438.731 1.272 1.655 2.392 2.587 3.347.53-1.198.992-2.55 1.222-3.984-.946-.79-1.81-1.716-2.483-2.8ZM11.88 21.568c1.173.434 2.317 1.025 3.343 1.825-.215-1.243-.184-2.478.007-3.66-1.146-.956-2.418-1.711-3.635-2.303-.07 1.295-.017 2.718.285 4.138ZM26.196 37.754c-1.173-.432-2.316-1.024-3.342-1.822.217 1.242.183 2.475-.007 3.66 1.147.955 2.42 1.713 3.636 2.305.07-1.298.015-2.719-.287-4.143ZM13.194 25.009c-.655-1.098-1.067-2.269-1.316-3.44-1.423-.528-2.89-.828-4.247-.986.403 1.239.968 2.559 1.761 3.797 1.258.026 2.549.212 3.802.629Z" fill="#C5C5C5"/><path fill-rule="evenodd" clip-rule="evenodd" d="M24.882 34.315a11.24 11.24 0 0 1 1.313 3.44c1.424.528 2.891.827 4.248.987-.4-1.238-.966-2.559-1.762-3.797-1.259-.027-2.546-.211-3.8-.63ZM8.066 27.827a12.817 12.817 0 0 1 3.8-.64A11.752 11.752 0 0 1 9.39 24.38c-1.528-.034-3.015.16-4.35.451.828 1.034 1.833 2.089 3.026 2.996ZM30.007 31.497c-1.194.382-2.469.628-3.798.64 1.01.82 1.822 1.786 2.474 2.808 1.53.033 3.016-.163 4.35-.454-.825-1.033-1.834-2.088-3.026-2.994ZM11.407 29.662c-1.242-.442-2.353-1.089-3.337-1.835-1.448.463-2.775 1.132-3.922 1.835 1.147.705 2.474 1.372 3.922 1.835a12.38 12.38 0 0 1 3.337-1.835ZM26.669 29.662a12.337 12.337 0 0 1 3.338 1.835c1.447-.463 2.774-1.13 3.92-1.835-1.146-.703-2.473-1.372-3.92-1.835-.983.746-2.093 1.393-3.338 1.835ZM9.39 34.945a11.706 11.706 0 0 1 2.476-2.808c-1.33-.012-2.607-.257-3.8-.64-1.193.906-2.198 1.962-3.026 2.994 1.335.291 2.823.487 4.35.454ZM28.683 24.38a11.724 11.724 0 0 1-2.474 2.806c1.329.013 2.604.258 3.798.641 1.192-.907 2.2-1.962 3.026-2.996-1.334-.29-2.82-.485-4.35-.45ZM13.194 34.315c-1.253.419-2.544.603-3.802.63-.793 1.238-1.358 2.559-1.761 3.797 1.357-.161 2.824-.459 4.248-.988.248-1.17.66-2.342 1.315-3.44ZM24.882 25.009c1.253-.418 2.54-.603 3.799-.629.796-1.238 1.362-2.558 1.762-3.797-1.357.159-2.824.457-4.248.985a11.238 11.238 0 0 1-1.313 3.44ZM17.715 36.79c-.675 1.085-1.538 2.011-2.484 2.801.23 1.433.69 2.786 1.222 3.984.934-.954 1.854-2.075 2.587-3.347-.605-1.049-1.081-2.198-1.325-3.437ZM15.223 35.932c-1.026.798-2.17 1.39-3.343 1.822-.302 1.424-.356 2.845-.285 4.143 1.217-.592 2.49-1.35 3.635-2.306-.191-1.184-.222-2.417-.007-3.659ZM20.364 22.534c.673-1.085 1.537-2.012 2.483-2.801-.23-1.433-.692-2.788-1.222-3.982-.932.952-1.856 2.073-2.587 3.345.606 1.049 1.08 2.198 1.326 3.438Z" fill="#C5C5C5"/><path fill-rule="evenodd" clip-rule="evenodd" d="M22.854 23.393c1.026-.8 2.17-1.391 3.342-1.825.302-1.424.356-2.843.287-4.14-1.217.591-2.49 1.35-3.636 2.305.19 1.182.224 2.417.007 3.66Z" fill="#C5C5C5"/><path fill-rule="evenodd" clip-rule="evenodd" d="M17.717 26.225a9.435 9.435 0 0 1-.005-3.69c-.674-1.086-1.537-2.012-2.484-2.802-.191 1.183-.222 2.417-.007 3.66.96.748 1.815 1.676 2.496 2.832ZM20.358 33.1a9.4 9.4 0 0 1 .007 3.69c.673 1.085 1.538 2.011 2.483 2.801.19-1.184.225-2.417.008-3.659a10.09 10.09 0 0 1-2.498-2.831Z" fill="#BBB"/><path fill-rule="evenodd" clip-rule="evenodd" d="M15.222 23.393c-1.027-.8-2.17-1.39-3.344-1.825.25 1.172.661 2.343 1.315 3.441 1.17.39 2.308.987 3.365 1.848a9.61 9.61 0 0 1-1.336-3.464ZM22.856 35.932c1.026.798 2.169 1.39 3.342 1.822a11.238 11.238 0 0 0-1.314-3.44 10.673 10.673 0 0 1-3.368-1.848 9.545 9.545 0 0 1 1.34 3.466Z" fill="#BBB"/><path fill-rule="evenodd" clip-rule="evenodd" d="M15.7 27.832a9.962 9.962 0 0 1-2.506-2.823c-1.253-.417-2.543-.603-3.8-.628a11.754 11.754 0 0 0 2.475 2.805 10.93 10.93 0 0 1 3.83.646ZM22.38 31.491a10.02 10.02 0 0 1 2.505 2.824c1.253.419 2.541.603 3.8.63a11.674 11.674 0 0 0-2.475-2.808 10.895 10.895 0 0 1-3.83-.646ZM15.239 29.027a10.568 10.568 0 0 1-3.372-1.84c-1.329.012-2.606.257-3.8.64.985.746 2.096 1.393 3.338 1.835a10.933 10.933 0 0 1 3.834-.635ZM22.837 30.295c1.316.44 2.43 1.077 3.371 1.842 1.33-.012 2.604-.258 3.798-.64-.983-.748-2.093-1.393-3.338-1.835a10.9 10.9 0 0 1-3.831.633Z" fill="#BBB"/><path fill-rule="evenodd" clip-rule="evenodd" d="M11.405 29.662a12.382 12.382 0 0 0-3.337 1.835c1.193.383 2.47.628 3.8.64a10.567 10.567 0 0 1 3.37-1.84 10.969 10.969 0 0 1-3.833-.635ZM26.668 29.662c1.245-.442 2.355-1.089 3.338-1.835-1.194-.383-2.469-.628-3.798-.64a10.601 10.601 0 0 1-3.371 1.84c1.394-.017 2.67.22 3.831.635ZM15.7 31.491c-1.307.47-2.593.66-3.83.646a11.705 11.705 0 0 0-2.477 2.808c1.258-.027 2.548-.211 3.801-.63A9.968 9.968 0 0 1 15.7 31.49ZM22.375 27.832a10.94 10.94 0 0 1 3.831-.646 11.72 11.72 0 0 0 2.474-2.805c-1.258.025-2.546.21-3.799.628a10.012 10.012 0 0 1-2.506 2.823ZM17.712 36.79c.245 1.24.72 2.389 1.326 3.438.607-1.049 1.08-2.198 1.326-3.437a9.635 9.635 0 0 1-1.326-3.47 9.596 9.596 0 0 1-1.326 3.47Z" fill="#BBB"/><path fill-rule="evenodd" clip-rule="evenodd" d="M17.717 33.1a10.05 10.05 0 0 1-2.496 2.832c-.215 1.242-.184 2.475.007 3.66.947-.79 1.81-1.717 2.484-2.801a9.432 9.432 0 0 1 .005-3.69Z" fill="#BBB"/><path fill-rule="evenodd" clip-rule="evenodd" d="M13.193 34.315c-.654 1.097-1.066 2.268-1.315 3.44 1.174-.433 2.317-1.025 3.344-1.823a9.603 9.603 0 0 1 1.337-3.466 10.642 10.642 0 0 1-3.366 1.849ZM20.364 22.534c-.246-1.24-.72-2.39-1.326-3.438-.605 1.049-1.081 2.198-1.326 3.438a9.559 9.559 0 0 1 1.326 3.47 9.6 9.6 0 0 1 1.326-3.47ZM20.358 26.225a10.044 10.044 0 0 1 2.498-2.832c.217-1.243.182-2.477-.008-3.66-.945.789-1.81 1.716-2.483 2.801a9.403 9.403 0 0 1-.007 3.691ZM24.884 25.01a11.242 11.242 0 0 0 1.314-3.442c-1.173.434-2.316 1.025-3.342 1.825a9.55 9.55 0 0 1-1.34 3.465 10.65 10.65 0 0 1 3.368-1.849Z" fill="#BBB"/><path fill-rule="evenodd" clip-rule="evenodd" d="M17.716 26.225a10.004 10.004 0 0 0-2.497-2.832 9.61 9.61 0 0 0 1.337 3.464 10.578 10.578 0 0 0-3.365-1.848 9.961 9.961 0 0 0 2.505 2.823 10.933 10.933 0 0 0-3.83-.646c.94.767 2.053 1.403 3.371 1.841-1.394-.017-2.67.221-3.834.635 1.164.414 2.44.652 3.834.635a10.567 10.567 0 0 0-3.371 1.84 10.894 10.894 0 0 0 3.83-.646 9.966 9.966 0 0 0-2.505 2.824c1.17-.391 2.308-.988 3.365-1.849a9.606 9.606 0 0 0-1.337 3.467c.96-.75 1.816-1.678 2.496-2.832a9.435 9.435 0 0 0-.005 3.69 9.595 9.595 0 0 0 1.326-3.469 9.637 9.637 0 0 0 1.326 3.469 9.4 9.4 0 0 0-.007-3.69 10.09 10.09 0 0 0 2.497 2.832 9.547 9.547 0 0 0-1.34-3.467c1.06.86 2.2 1.458 3.369 1.849a10.028 10.028 0 0 0-2.505-2.824c1.307.47 2.59.66 3.83.647a10.658 10.658 0 0 0-3.371-1.843c1.394.019 2.67-.219 3.831-.633a10.918 10.918 0 0 0-3.831-.635 10.601 10.601 0 0 0 3.371-1.84 10.939 10.939 0 0 0-3.831.645 10.01 10.01 0 0 0 2.506-2.823c-1.17.392-2.309.987-3.368 1.85a9.552 9.552 0 0 0 1.34-3.466 10.044 10.044 0 0 0-2.498 2.832 9.404 9.404 0 0 0 .007-3.69 9.597 9.597 0 0 0-1.326 3.468 9.559 9.559 0 0 0-1.326-3.469 9.435 9.435 0 0 0 .006 3.691Z" fill="#fff"/></svg>