<svg width="112" height="32" fill="none" xmlns="http://www.w3.org/2000/svg"><path d="M54.662 31.978c-5.272-.177-10.688-1.358-16.226-3.54a73.015 73.015 0 0 1-7.062-3.26c-1.6-.84-5.26-2.9-5.465-3.075-.128-.111-.178-.215-.178-.37 0-.285.223-.49.536-.489.162 0 .2.016.583.234 1.534.874 3.657 1.864 5.725 2.671 9.632 3.757 21.043 5.076 31.997 3.7 7.48-.941 14.671-3.142 20.28-6.207.81-.442.884-.465 1.127-.35.335.158.407.547.146.784-.102.094-.228.168-2.07 1.219-4.91 2.802-8.874 4.652-13.002 6.068-5.552 1.904-11.115 2.791-16.39 2.615Z" fill="#BBB"/><path fill-rule="evenodd" clip-rule="evenodd" d="M.6.495s.104.3.204 1.154c.12 2.126.127 3.889.14 5.854.029 1.518.012 2.996-.002 4.42-.01.965-.017 1.49-.017 2.367C.925 16.9.7 18.728.7 18.728s2.099.415 5.266.415c3.169 0 6.53-1.008 8.47-2.52 1.94-1.512 3.686-3.677 3.686-7.56 0-3.884-1.81-6.019-4.203-7.412C11.527.257 7.874-.009 5.061.11 2.249.23.697.495.6.495ZM110.771 15.11l-4.232-.919c-1.111 1.008-2.31 1.508-3.851 1.482-3.172-.053-4.748-1.768-5.334-4.595h13.642c.194-1.008.257-2.076.193-3.084-.13-2.035-.811-3.91-2.198-5.514C107.618.893 105.256.06 102.336.08c-2.741.019-4.982.88-6.756 2.609-1.668 1.624-2.666 4.1-2.62 7.322.046 3.062.895 5.34 2.975 7.205 1.448 1.298 3.395 1.991 5.948 1.986 4.866-.135 6.888-1.573 8.888-4.091Zm-3.464-7.175h-9.793c.173-2.322 2.492-4.486 4.949-4.475 2.542.01 4.726 1.679 4.844 4.475ZM64.366 3.594c3.238 0 5.865 2.689 5.865 6.004 0 3.316-2.627 6.004-5.865 6.004-3.237 0-5.864-2.688-5.864-6.004 0-3.315 2.627-6.004 5.864-6.004ZM64.492 0c5.434 0 9.84 4.33 9.84 9.598 0 5.268-4.532 9.54-9.966 9.54-5.433 0-9.84-4.272-9.84-9.54C54.526 4.33 59.059 0 64.492 0Zm10.694 18.49h4.393V6.306c4.02 3.232 6.981 7.294 8.76 12.186l3.773.02V.614h-4.207l-.004 8.769c-1.317-2.02-2.93-3.681-4.516-5.113-1.588-1.435-2.877-2.65-4.485-3.656h-3.715v17.878Zm-38.379 0h4.267V6.306c4.02 3.232 6.92 7.294 8.697 12.186h3.815V.613h-4.268v8.626A39.988 39.988 0 0 0 40.396.613h-3.589v17.878ZM24.62.614h4.138c4.018 4.077 6.477 10.007 7.306 17.878H31.57a35.714 35.714 0 0 0-.546-3.885h-8.871a34.828 34.828 0 0 0-.54 3.885H17.25c.787-7.919 3.425-14.046 7.37-17.878Zm5.576 10.644c-.965-2.826-2.113-5.15-3.668-7.294-1.544 2.152-2.752 4.579-3.605 7.294h7.273ZM5.1 3.607s.867-.03 1.934-.03c1.068 0 3.398.179 5.111 1.72 1.713 1.542 1.746 3.291 1.746 4.507 0 1.216-.456 3.854-3.268 5.04-2.813 1.186-5.556.741-5.556.741L5.1 3.608Z" fill="#BBB"/></svg>