<svg width="72" height="28" fill="none" xmlns="http://www.w3.org/2000/svg"><path d="M0 13.966C0 21.594 15.087 27.93 36.005 27.93 56.924 27.931 72 21.594 72 13.966 72 6.337 56.913 0 36.005 0 15.098 0 0 6.337 0 13.966Z" fill="#BBB"/><path d="M23.87 7.896c-.16.334-.16.657-.16.99v4.177l2.652-3.597c.375-.512.838-1.236.838-1.57h7.044c-.483.334-1.02.935-1.46 1.492l-2.578 3.262 3.674 5.792c.236.357.493.69.794.991h-8.107c0-.334-.311-1.014-.655-1.548L23.71 14.42v4.021c0 .334 0 .657.161.991h-6.754c.161-.334.161-.657.161-.99V8.886c0-.334 0-.657-.16-.991h6.753Zm25.01 0H35.843c.161.334.161.657.161.99v9.556c0 .334 0 .657-.161.991h13.036v-3.196c-.322.167-.634.167-.956.167h-5.487v-1.515h5.273V12.45h-5.273v-1.525h5.487c.322 0 .633 0 .956.156V7.896ZM66.94 18.442c.107.368.29.702.526.991h-7.065c.031-.334-.086-.657-.215-.99l-.258-.658-.065-.167h-4.07l-.063.178-.226.657c-.108.334-.226.657-.183.991H49.75c.23-.295.4-.632.505-.991l3.34-9.555c.118-.334.235-.658.193-.992h9.417c-.086.334.086.658.204.992l3.533 9.544Zm-7.967-3.263-.988-2.673a6.19 6.19 0 0 1-.216-.757c-.042.258-.107.511-.193.757-.032.112-.451 1.28-.934 2.673h2.33Zm-45.22-6.292c0-.334 0-.657.162-.991H6.57c.16.334.16.657.16.99v9.556c0 .334 0 .657-.16.991h7.345c-.161-.334-.161-.657-.161-.99V8.886Zm50.932-.078c-.022.835.612 1.536 1.428 1.559.805.022 1.482-.634 1.503-1.481v-.078c.01-.825-.612-1.504-1.406-1.515h-.053c-.785-.034-1.44.602-1.46 1.414a.11.11 0 0 0-.012.1Zm2.63 0c.022.668-.493 1.236-1.138 1.247-.644.021-1.191-.513-1.202-1.181v-.078c-.022-.647.461-1.192 1.085-1.214h.086c.633-.01 1.159.512 1.17 1.17v.055Zm-.45.913h-.29l-.343-.647h-.377v.647h-.258V7.896h.655a.573.573 0 0 1 .549.59.612.612 0 0 1-.312.534l.376.702Zm-.655-.913a.301.301 0 0 0 .322-.3c0-.179-.118-.335-.29-.335h-.387v.646h.355" fill="#fff"/></svg>