<svg width="75" height="45" fill="none" xmlns="http://www.w3.org/2000/svg"><path d="M11.56 42.207h52.238l-25.98-25.739-26.258 25.74ZM10.562 40.942l4.07-3.934-1.356-1.377-2.556 2.471-4.503-4.574-1.514 1.464 5.859 5.95ZM15.525 36.112l4.17-4.032-1.145-1.162-2.648 2.56-1.272-1.292 2.122-2.051-1.198-1.216-2.122 2.05-1.09-1.106 2.561-2.476-1.144-1.162-4.157 4.018 5.923 5.87ZM29.174 17c-1.682-1.709-4.6-1.504-6.004-.146-1.406 1.358-2.123 4.067-.138 6.082 2.18 2.214 4.773 1.41 6.179.052 2.072-2.003 1.334-4.596-.037-5.989Zm-1.236 4.819c-.93.899-2.068.655-3.367-.665-1.092-1.109-1.027-2.223-.232-2.99.546-.528 1.655-1 2.974.34 1.505 1.528 1.555 2.415.625 3.315ZM33.865 18.418l1.538-1.488-2.314-2.35-1.386-5.71-1.763 1.704.917 3.24-3.1-1.13-1.663 1.606 5.285 1.682 2.486 2.446ZM25.662 26.356s-3.745-1.266-3.923-1.235c-.058.009.805-2.264-1.132-3.27 0 0-1.437-.771-2.875.523l-3.066 2.993 5.91 5.896 1.563-1.512-3.198-3.246 5.17 1.35 1.55-1.5Zm-5.8-.81c-.869.838-.986.905-.986.905l-1.41-1.432c-.049-.05.974-.917 1.135-1.073.068-.067.704-.478 1.231.057 0 0 .898.703.03 1.543ZM33.387 9.995 32.02 8.629l5.97-5.866 1.953 1.951-2.15 4.194 4.384-1.962 1.88 1.878-5.97 5.865-1.44-1.439 3.15-3.095-4.31 1.937-.891-.89 2.003-4.267-3.212 3.06ZM43.752 20.347l-4.14-4.133 5.97-5.866 4.15 4.146-1.205 1.185-2.6-2.597-.973.955 2.051 2.049-1.256 1.234-2.038-2.037-1.305 1.282 2.576 2.573-1.23 1.21ZM57.4 22.152l1.538 1.537-4.518 4.438 2.527 2.523-1.452 1.428-4.065-4.06 5.97-5.866ZM56.569 33.152l5.97-5.866 1.501 1.5-5.97 5.865-1.501-1.5ZM60.793 37.371l-1.404-1.403 5.97-5.865 2.038 2.035-1.742 6.09 3.952-3.883 1.367 1.366-5.97 5.866-1.782-1.78 1.535-6.394-3.964 3.968ZM54.702 19.457l-3.626-3.622-5.982 5.854 1.538 1.536 3.261-3.204-1.174 5.29 1.575 1.573s1.242-3.784 1.28-3.942c0 0 1.345.734 2.82-.523 0 0 1.416-1.367.308-2.962Zm-2.214 1.716s-.762.507-1.434-.164l-1.049-1.098 1.427-1.402s.977.976 1.1 1.097c.12.122.89.696-.044 1.567Z" fill="#BBB"/></svg>