<svg width="119" height="20" fill="none" xmlns="http://www.w3.org/2000/svg"><path d="M82.353 4.586V.348c6.512-.083 6.776-.156 8.928-.11 3.31.072 5.305.873 6.74 2.105 1.384 1.188 2.481 2.999 2.43 5.628-.03 1.513-1.133 7.081-9.116 7.428-.936.071-3.085.009-4.45.036l1.35-4.348c3.162.223 5.671-.623 5.805-3.161.146-2.85-2.833-3.755-5.805-3.308l-5.882-.032Z" fill="#BBB"/><path d="M88.231 19.533h-5.878V3.682l5.879.032v15.818ZM109.362 7.105l4.825 1.457c3.212 1.075 3.894 3.257 3.863 5.136-.07 4.358-4.171 5.991-7.44 6.227-3.717.268-6.595-.26-7.562-.393v-4.743c2.942.758 6.366.728 7.522.346.874-.29 1.539-.731 1.486-1.31-.029-.315-.067-.715-1.172-1.116l-4.449-1.368c-2.858-.873-3.96-3.173-3.841-5.222.242-4.14 4.142-6.235 8.037-6.114 1.201.037 2.82.013 5.174.289v4.698c-2.638-.52-3.874-.511-5.235-.368-1.522.16-2.206.827-2.174 1.54.015.361.441.758.966.935M26.846 7.497h6.33l-.002-7.13h5.88v19.17h-5.878V11.84h-6.33l-.001 7.696H20.96V.366h5.885v7.131ZM50.471.366H44.59v19.17h5.883V.366ZM76.76.366h-5.883v19.17h5.884V.366ZM61.895 15.184h6.066v4.35l-11.95.002V.366h5.884v14.818ZM0 4.586V.348C6.513.265 6.775.192 8.93.238c3.307.072 5.303.873 6.74 2.105 1.381 1.188 2.48 2.999 2.429 5.628-.032 1.513-1.134 7.081-9.117 7.428-.935.071-3.017.009-4.382.036l1.285-4.348c3.163.223 5.67-.623 5.802-3.161.146-2.85-2.834-3.755-5.805-3.308L0 4.586Z" fill="#BBB"/><path d="M5.887 19.533H0V4.011l5.882.031.005 15.49Z" fill="#BBB"/></svg>